<svg width="968" height="932" viewBox="0 0 968 932" fill="none" xmlns="http://www.w3.org/2000/svg">
<g opacity="0.62">
<path d="M416.729 770.173C379.106 786.334 340.629 795.177 298.635 790.004C251.828 784.234 209.144 747.286 183.91 709.308C174.534 695.202 166.763 679.263 166.537 662.331C166.03 623.213 202.575 616.453 234.249 620.717C252.104 623.113 268.812 630.128 285.332 637.079C312.759 648.627 344.341 653.124 369.354 669.98C377.749 675.653 384.235 682.705 393.814 686.606C408.715 692.68 425.417 694.917 440.668 700.334C453.691 704.987 468.437 713.077 469.356 726.869C470.281 741.016 456.111 750.994 443.51 757.472C434.593 762.084 425.693 766.339 416.729 770.173Z" fill="url(#paint0_linear)"/>
<path d="M242.133 276.573C299.156 179.475 427.183 133.625 535.215 161.68C587.309 175.218 632.337 207.548 674.134 241.432C710.976 271.296 746.946 303.753 773.37 343.512C791.412 370.651 805.214 403.693 815.462 434.712C830.788 481.159 823.644 542.76 762.279 542.286C747.882 542.177 735.149 537.833 721.453 534.2C710.374 531.253 699.894 534.139 688.522 533.088C659.9 530.452 631.928 521.803 605.324 511.272C551.104 489.785 500.838 459.066 445.325 440.759C399.833 425.78 351.895 419.643 304.096 422.678C283.931 423.961 262.823 426.756 244.199 418.918C198.292 399.578 214.368 338.299 228.768 303.478C232.58 294.204 237.046 285.213 242.133 276.573Z" fill="url(#paint1_linear)"/>
<path d="M737.737 258.315C748.738 267.045 791.225 290.063 790.043 259.874C789.738 252.353 785.857 245.285 780.863 240.089C775.149 234.124 768.921 231.206 764.301 224.123C758.654 215.576 752.343 207.608 745.446 200.324C731.33 185.146 715.104 171.33 696.159 165.939C682.871 162.163 660.96 164.761 655.878 181.807C648.473 206.622 687.189 208.553 699.484 216.617C711.151 224.249 718.387 238.198 727.942 249.036C730.961 252.453 734.24 255.559 737.737 258.315Z" fill="url(#paint2_linear)"/>
<path d="M543.735 241.385C566.582 252.902 584.352 271.214 605.431 285.52C640.524 309.334 686.647 311.663 726.125 327.24C766.38 343.135 797.739 369.874 813.768 410.316C834.473 462.517 840.249 525.825 829.194 581.601C817.018 642.997 781.79 685.552 728.201 715.896C674.644 746.222 614.195 762.688 553.263 769.249C547.383 769.887 541.505 770.408 535.598 770.831C402.911 780.267 223.18 745.078 168.681 605.435C168.182 604.159 167.7 602.883 167.215 601.587C161.522 586.005 157.714 569.797 155.874 553.309C149.204 494.868 155.241 429.488 172.208 373.187C183.617 335.283 211.343 302.054 241.257 277.714C283.285 243.52 336.538 232.017 389.814 224.766C429.265 219.398 473.773 215.472 512.241 228.186C523.054 231.792 533.582 236.204 543.735 241.385Z" fill="url(#paint3_linear)"/>
</g>
<path d="M469.585 454.872C471.186 458.682 475.572 460.473 479.382 458.872L495.072 452.28C503.059 448.924 511.719 447.44 520.362 448.042C522.939 448.221 525.607 447.733 528.116 446.476C534.763 443.146 537.971 435.254 535.533 428.229C532.672 419.983 523.508 415.983 515.587 419.311C513.441 420.213 511.616 421.556 510.173 423.19C504.381 429.752 497.341 435.094 489.272 438.484L473.585 445.075C469.775 446.676 467.984 451.062 469.585 454.872Z" fill="#FB4C47"/>
<path d="M394.925 538.94C391.762 537.649 388.15 539.166 386.859 542.329L381.54 555.356C378.833 561.987 374.638 567.918 369.234 572.619C367.622 574.02 366.348 575.865 365.616 578.066C363.677 583.9 366.415 590.389 371.947 593.07C378.441 596.219 386.136 593.2 388.821 586.623C389.548 584.842 389.83 582.99 389.719 581.191C389.269 573.969 390.262 566.73 392.997 560.031L398.315 547.007C399.605 543.843 398.088 540.232 394.925 538.94Z" fill="#C63F3B"/>
<path d="M442.898 421.453C446.208 422.804 449.987 421.217 451.338 417.907L456.904 404.275C459.738 397.336 464.127 391.13 469.782 386.211C471.468 384.744 472.802 382.814 473.568 380.51C475.597 374.406 472.731 367.615 466.943 364.81C460.148 361.515 452.094 364.675 449.285 371.556C448.524 373.42 448.229 375.358 448.346 377.241C448.816 384.798 447.778 392.373 444.916 399.383L439.351 413.012C438 416.323 439.588 420.101 442.898 421.453Z" fill="#C63F3B"/>
<path d="M441.357 524.022C437.548 525.623 435.756 530.009 437.357 533.819L443.949 549.509C447.305 557.496 448.79 566.156 448.188 574.799C448.008 577.376 448.496 580.044 449.753 582.553C453.084 589.2 460.976 592.408 468 589.97C476.247 587.109 480.246 577.945 476.918 570.024C476.017 567.878 474.674 566.053 473.039 564.61C466.478 558.818 461.136 551.778 457.745 543.709L451.154 528.022C449.554 524.212 445.167 522.421 441.357 524.022Z" fill="#FB4C47"/>
<path d="M473.037 564.611C466.476 558.819 461.133 551.779 457.743 543.71L451.152 528.023C449.551 524.213 445.165 522.421 441.354 524.022C437.544 525.623 435.753 530.009 437.354 533.82L443.945 549.507C447.336 557.576 452.678 564.615 459.239 570.408C460.874 571.851 462.217 573.676 463.118 575.822C465.262 580.925 464.361 586.541 461.247 590.658C463.469 590.947 465.777 590.742 467.998 589.971C476.244 587.109 480.244 577.946 476.916 570.025C476.015 567.879 474.672 566.054 473.037 564.611Z" fill="#C63F3B"/>
<path d="M357.439 468.472C369.885 463.243 375.736 448.913 370.507 436.467C365.277 424.021 350.948 418.17 338.502 423.399C326.055 428.629 320.205 442.958 325.434 455.404C330.663 467.851 344.993 473.701 357.439 468.472Z" fill="#FF8F8C"/>
<path d="M338.507 423.399C336.1 424.41 333.943 425.765 332.062 427.377C342.357 426.481 352.496 432.224 356.714 442.264C360.932 452.303 357.938 463.564 350.092 470.29C352.56 470.075 355.037 469.483 357.444 468.471C369.891 463.242 375.741 448.913 370.512 436.466C365.282 424.02 350.953 418.169 338.507 423.399Z" fill="#FB4C47"/>
<path d="M451.815 548.917C492.456 531.842 511.559 485.054 494.484 444.413C477.409 403.772 430.621 384.669 389.98 401.744C349.339 418.82 330.236 465.608 347.311 506.248C364.387 546.889 411.175 565.992 451.815 548.917Z" fill="#FB4C47"/>
<path d="M389.98 401.744C387.654 402.721 385.401 403.8 383.218 404.967C422.085 392.729 464.59 411.896 480.687 450.209C496.785 488.523 480.724 532.296 444.781 551.49C447.141 550.747 449.489 549.894 451.816 548.916C492.457 531.841 511.56 485.053 494.485 444.412C477.409 403.771 430.621 384.668 389.98 401.744Z" fill="#C63F3B"/>
<path d="M444.206 453.529C452.461 450.061 456.342 440.557 452.873 432.302C449.405 424.047 439.901 420.166 431.646 423.635C423.39 427.103 419.51 436.607 422.978 444.862C426.447 453.117 435.951 456.998 444.206 453.529Z" fill="#C63F3B"/>
<path d="M431.644 423.635C429.155 424.681 427.067 426.278 425.455 428.222C431.284 428.706 436.651 432.334 439.074 438.099C441.497 443.865 440.331 450.238 436.596 454.74C439.113 454.949 441.715 454.576 444.205 453.53C452.46 450.061 456.34 440.557 452.872 432.302C449.403 424.047 439.899 420.167 431.644 423.635Z" fill="white"/>
<path d="M410.924 525.247C416.512 522.899 419.139 516.466 416.791 510.877C414.443 505.289 408.01 502.662 402.422 505.01C396.833 507.358 394.207 513.792 396.555 519.38C398.902 524.968 405.336 527.595 410.924 525.247Z" fill="white"/>
<path d="M499.688 522.67C507.308 519.468 510.89 510.695 507.688 503.075C504.486 495.455 495.713 491.873 488.093 495.075C480.473 498.276 476.891 507.049 480.093 514.669C483.294 522.29 492.067 525.872 499.688 522.67Z" fill="#FB4C47"/>
<path d="M488.092 495.075C485.578 496.131 483.507 497.797 481.971 499.824C487.096 500.478 491.744 503.767 493.89 508.873C496.035 513.98 495.131 519.601 492.01 523.719C494.534 524.041 497.173 523.728 499.687 522.671C507.308 519.47 510.889 510.697 507.688 503.077C504.486 495.456 495.713 491.873 488.092 495.075Z" fill="#C63F3B"/>
<path d="M372.201 495.788C373.802 499.598 372.012 503.985 368.201 505.586L352.511 512.178C344.524 515.534 337.403 520.68 331.783 527.274C330.108 529.24 327.892 530.804 325.238 531.716C318.207 534.133 310.325 530.9 307.014 524.243C303.127 516.427 306.684 507.083 314.605 503.755C316.751 502.853 318.987 502.49 321.165 502.603C329.905 503.059 338.648 501.77 346.717 498.38L362.405 491.788C366.214 490.187 370.601 491.979 372.201 495.788Z" fill="#C63F3B"/>
<path d="M400.445 426.637C404.255 425.037 406.046 420.65 404.446 416.84L397.853 401.15C394.497 393.163 393.013 384.503 393.615 375.86C393.794 373.284 393.306 370.616 392.049 368.107C388.719 361.459 380.827 358.251 373.802 360.689C365.556 363.551 361.556 372.715 364.884 380.635C365.786 382.781 367.129 384.606 368.764 386.049C375.325 391.841 380.667 398.881 384.057 406.95L390.648 422.637C392.249 426.447 396.635 428.238 400.445 426.637Z" fill="#FB4C47"/>
<path d="M392.05 368.107C388.72 361.459 380.828 358.251 373.803 360.689C370.869 361.707 368.477 363.525 366.757 365.799C371.564 366.423 375.975 369.358 378.252 373.904C379.509 376.413 379.997 379.081 379.818 381.657C379.216 390.3 380.701 398.96 384.057 406.947L390.649 422.637C392.249 426.447 396.636 428.238 400.446 426.637C404.256 425.036 406.047 420.65 404.446 416.84L397.854 401.15C394.498 393.163 393.014 384.503 393.616 375.86C393.795 373.283 393.308 370.615 392.05 368.107Z" fill="#C63F3B"/>
<path d="M517.148 419.7C514.987 420.562 513.139 421.87 511.667 423.477C511.407 423.761 511.14 424.04 510.875 424.32C516.313 425.089 521.166 428.833 523.022 434.518C524.61 439.379 523.517 444.602 520.497 448.432C520.795 448.453 521.094 448.471 521.392 448.497C523.964 448.724 526.639 448.285 529.169 447.075C535.872 443.869 539.223 436.042 536.916 428.978C534.207 420.685 525.124 416.52 517.148 419.7Z" fill="#C63F3B"/>
<g opacity="0.63">
<path d="M576.292 594.273C577.508 595.989 579.885 596.396 581.602 595.18L588.671 590.173C592.27 587.624 596.41 585.931 600.771 585.276C602.071 585.081 603.343 584.544 604.451 583.643C607.387 581.255 608.11 576.979 606.124 573.757C603.792 569.975 598.797 568.999 595.228 571.526C594.261 572.211 593.503 573.08 592.966 574.051C590.811 577.951 587.903 581.382 584.267 583.957L577.199 588.963C575.482 590.179 575.076 592.556 576.292 594.273Z" fill="#FFC700"/>
<path d="M542.599 635.103C540.885 634.81 539.258 635.962 538.965 637.676L537.759 644.736C537.145 648.33 535.715 651.74 533.548 654.672C532.902 655.546 532.472 656.604 532.352 657.778C532.032 660.891 534.108 663.813 537.153 664.536C540.727 665.384 544.218 663.034 544.827 659.47C544.992 658.505 544.927 657.554 544.673 656.672C543.653 653.133 543.348 649.426 543.968 645.796L545.174 638.737C545.466 637.022 544.313 635.395 542.599 635.103Z" fill="#D09700"/>
<path d="M553.478 571.427C555.272 571.734 556.974 570.528 557.281 568.734L558.543 561.346C559.185 557.585 560.682 554.017 562.949 550.949C563.625 550.034 564.075 548.928 564.201 547.699C564.536 544.441 562.363 541.383 559.177 540.628C555.437 539.74 551.784 542.199 551.147 545.928C550.974 546.938 551.042 547.934 551.307 548.857C552.375 552.56 552.694 556.439 552.046 560.238L550.784 567.624C550.478 569.418 551.684 571.121 553.478 571.427Z" fill="#D09700"/>
<path d="M564.023 622.569C562.307 623.784 561.9 626.162 563.116 627.879L568.123 634.948C570.672 638.547 572.365 642.686 573.02 647.048C573.215 648.348 573.752 649.62 574.653 650.728C577.041 653.664 581.317 654.387 584.539 652.401C588.321 650.069 589.298 645.074 586.77 641.505C586.085 640.538 585.216 639.779 584.245 639.243C580.345 637.088 576.914 634.179 574.339 630.544L569.333 623.476C568.117 621.759 565.74 621.353 564.023 622.569Z" fill="#FFC700"/>
<path d="M584.244 639.241C580.345 637.086 576.914 634.178 574.339 630.542L569.332 623.474C568.117 621.757 565.739 621.351 564.022 622.567C562.306 623.783 561.9 626.16 563.116 627.877L568.122 634.945C570.697 638.581 574.128 641.489 578.028 643.644C578.999 644.181 579.868 644.94 580.553 645.906C582.181 648.205 582.353 651.096 581.259 653.485C582.396 653.383 583.52 653.027 584.539 652.399C588.321 650.067 589.297 645.072 586.769 641.503C586.085 640.536 585.216 639.778 584.244 639.241Z" fill="#D09700"/>
<path d="M516.199 604.222C521.806 600.25 523.133 592.484 519.161 586.876C515.189 581.268 507.423 579.942 501.816 583.914C496.208 587.885 494.881 595.651 498.853 601.259C502.825 606.867 510.591 608.193 516.199 604.222Z" fill="#D09700"/>
<path d="M501.816 583.913C500.732 584.682 499.809 585.593 499.052 586.602C504.069 585.02 509.741 586.756 512.945 591.279C516.148 595.802 515.903 601.729 512.746 605.936C513.949 605.557 515.115 604.99 516.199 604.221C521.807 600.25 523.133 592.484 519.162 586.876C515.19 581.268 507.424 579.942 501.816 583.913Z" fill="#FFC700"/>
<path d="M571.966 633.786C590.277 620.817 594.608 595.459 581.639 577.148C568.67 558.836 543.312 554.505 525.001 567.474C506.69 580.443 502.359 605.801 515.328 624.113C528.297 642.424 553.654 646.755 571.966 633.786Z" fill="#FFC700"/>
<path d="M525.007 567.474C523.959 568.216 522.959 569.001 522.002 569.822C539.966 559.452 563.202 564.287 575.429 581.55C587.655 598.813 584.504 622.337 568.76 635.84C569.851 635.211 570.924 634.528 571.972 633.785C590.284 620.816 594.615 595.458 581.646 577.147C568.677 558.835 543.319 554.505 525.007 567.474Z" fill="#D09700"/>
<path d="M553.089 590.007C554.443 589.048 554.763 587.173 553.804 585.819C552.845 584.465 550.97 584.144 549.616 585.103C548.261 586.063 547.941 587.938 548.9 589.292C549.859 590.646 551.735 590.967 553.089 590.007Z" fill="white"/>
<path d="M549.032 626.535C551.55 624.752 552.146 621.264 550.362 618.746C548.579 616.228 545.092 615.633 542.574 617.416C540.056 619.199 539.46 622.687 541.243 625.205C543.027 627.723 546.514 628.319 549.032 626.535Z" fill="white"/>
<path d="M531.396 603.095C535.252 600.364 536.164 595.026 533.433 591.17C530.703 587.315 525.364 586.403 521.509 589.134C517.653 591.864 516.742 597.203 519.472 601.058C522.202 604.913 527.541 605.825 531.396 603.095Z" fill="white"/>
<path d="M592.856 615.461C596.29 613.029 597.102 608.275 594.67 604.841C592.238 601.408 587.483 600.595 584.05 603.027C580.616 605.459 579.804 610.214 582.236 613.647C584.668 617.081 589.422 617.893 592.856 615.461Z" fill="#FFC700"/>
<path d="M584.051 603.028C582.918 603.83 582.073 604.886 581.533 606.063C584.152 605.822 586.825 606.944 588.455 609.245C590.084 611.546 590.255 614.439 589.159 616.83C590.448 616.711 591.725 616.264 592.858 615.462C596.291 613.03 597.103 608.275 594.672 604.842C592.24 601.408 587.485 600.596 584.051 603.028Z" fill="#D09700"/>
<path d="M526.547 616.168C527.763 617.884 527.357 620.262 525.64 621.478L518.571 626.484C514.972 629.033 512.001 632.376 509.936 636.273C509.321 637.435 508.392 638.457 507.174 639.203C503.946 641.179 499.673 640.443 497.293 637.5C494.499 634.045 495.236 629.009 498.805 626.481C499.772 625.796 500.843 625.369 501.938 625.185C506.331 624.447 510.534 622.842 514.169 620.267L521.238 615.261C522.954 614.045 525.331 614.451 526.547 616.168Z" fill="#D09700"/>
<path d="M532.949 578.692C534.665 577.476 535.072 575.098 533.856 573.382L528.849 566.312C526.3 562.713 524.607 558.574 523.952 554.213C523.757 552.912 523.22 551.64 522.319 550.532C519.931 547.596 515.655 546.873 512.433 548.859C508.651 551.191 507.674 556.186 510.202 559.755C510.887 560.722 511.756 561.481 512.727 562.017C516.627 564.172 520.058 567.081 522.633 570.716L527.639 577.785C528.855 579.501 531.232 579.907 532.949 578.692Z" fill="#FFC700"/>
<path d="M522.317 550.533C519.928 547.597 515.653 546.873 512.431 548.86C511.085 549.689 510.097 550.857 509.493 552.176C511.951 551.956 514.467 552.928 516.1 554.936C517.001 556.044 517.538 557.316 517.733 558.616C518.388 562.977 520.081 567.117 522.63 570.716L527.637 577.785C528.852 579.502 531.23 579.908 532.947 578.692C534.663 577.476 535.069 575.099 533.853 573.382L528.847 566.313C526.298 562.714 524.605 558.574 523.95 554.213C523.755 552.913 523.218 551.641 522.317 550.533Z" fill="#D09700"/>
</g>
<path d="M627.582 510.64C625.225 510.089 622.868 511.554 622.317 513.911L620.05 523.618C618.896 528.559 616.623 533.176 613.366 537.068C612.396 538.228 611.71 539.661 611.443 541.283C610.738 545.58 613.378 549.814 617.547 551.073C622.441 552.551 627.488 549.58 628.632 544.68C628.943 543.352 628.933 542.025 628.654 540.779C627.534 535.776 627.42 530.602 628.586 525.61L630.853 515.905C631.404 513.548 629.939 511.191 627.582 510.64Z" fill="#1DB776"/>
<path d="M613.382 446.336C615.082 445.28 615.604 443.046 614.548 441.346L610.199 434.346C607.985 430.782 606.614 426.754 606.243 422.575C606.132 421.329 605.695 420.091 604.903 418.987C602.803 416.062 598.784 415.13 595.611 416.831C591.886 418.829 590.672 423.516 592.868 427.05C593.462 428.007 594.244 428.777 595.136 429.343C598.715 431.613 601.806 434.572 604.043 438.172L608.391 445.171C609.448 446.87 611.682 447.392 613.382 446.336Z" fill="#128E5A"/>
<path d="M652.605 509.472C650.827 510.577 650.281 512.915 651.386 514.694L655.937 522.019C658.254 525.748 659.687 529.963 660.076 534.336C660.192 535.639 660.649 536.936 661.479 538.091C663.676 541.151 667.881 542.127 671.202 540.346C675.1 538.256 676.37 533.351 674.072 529.653C673.45 528.651 672.632 527.846 671.699 527.254C667.954 524.879 664.719 521.782 662.378 518.015L657.828 510.691C656.722 508.913 654.384 508.367 652.605 509.472Z" fill="#128E5A"/>
<path d="M604.493 473.481C605.043 471.124 603.579 468.767 601.222 468.216L591.515 465.949C586.574 464.795 581.957 462.522 578.065 459.265C576.905 458.294 575.472 457.609 573.85 457.342C569.553 456.636 565.319 459.277 564.06 463.446C562.582 468.34 565.553 473.387 570.453 474.531C571.781 474.841 573.108 474.832 574.354 474.553C579.356 473.432 584.531 473.319 589.523 474.485L599.228 476.752C601.585 477.303 603.942 475.838 604.493 473.481Z" fill="#1DB776"/>
<path d="M574.356 474.553C579.358 473.433 584.533 473.319 589.525 474.485L599.23 476.752C601.587 477.303 603.944 475.838 604.495 473.481C605.045 471.124 603.581 468.767 601.224 468.216L591.519 465.949C586.527 464.783 581.352 464.897 576.35 466.017C575.103 466.296 573.776 466.306 572.449 465.996C569.292 465.258 566.938 462.9 566.056 460.008C565.156 460.963 564.459 462.128 564.062 463.446C562.584 468.34 565.555 473.387 570.455 474.532C571.782 474.842 573.109 474.832 574.356 474.553Z" fill="#128E5A"/>
<path d="M659.683 452.783C657.885 460.483 662.669 468.183 670.369 469.982C678.069 471.78 685.769 466.996 687.568 459.296C689.366 451.596 684.582 443.896 676.882 442.097C669.182 440.298 661.482 445.082 659.683 452.783Z" fill="#128E5A"/>
<path d="M687.57 459.298C687.918 457.809 688.017 456.32 687.899 454.873C684.785 460.064 678.576 462.898 672.365 461.447C666.154 459.996 661.843 454.705 661.35 448.672C660.604 449.917 660.033 451.295 659.685 452.784C657.887 460.484 662.671 468.185 670.371 469.983C678.071 471.782 685.771 466.998 687.57 459.298Z" fill="#1DB776"/>
<path d="M589.091 469.885C583.218 495.027 598.839 520.17 623.981 526.043C649.124 531.916 674.267 516.295 680.14 491.153C686.013 466.01 670.392 440.867 645.249 434.994C620.107 429.121 594.964 444.742 589.091 469.885Z" fill="#1DB776"/>
<path d="M680.149 491.152C680.485 489.712 680.747 488.273 680.945 486.837C673.387 509.475 649.687 523.043 625.984 517.507C602.281 511.97 587.044 489.307 590.297 465.663C589.838 467.038 589.436 468.445 589.1 469.884C583.227 495.027 598.848 520.17 623.99 526.043C649.133 531.916 674.276 516.294 680.149 491.152Z" fill="#128E5A"/>
<path d="M636.938 499.066C635.745 504.173 638.918 509.28 644.026 510.473C649.133 511.666 654.24 508.493 655.433 503.386C656.626 498.279 653.453 493.172 648.346 491.979C643.239 490.786 638.131 493.959 636.938 499.066Z" fill="#128E5A"/>
<path d="M655.443 503.385C655.802 501.845 655.763 500.306 655.395 498.873C653.162 501.471 649.596 502.769 646.029 501.936C642.462 501.103 639.841 498.359 638.99 495.041C638.026 496.162 637.308 497.525 636.948 499.065C635.755 504.172 638.928 509.279 644.036 510.472C649.143 511.665 654.25 508.492 655.443 503.385Z" fill="white"/>
<path d="M614.374 458.628C613.566 462.086 615.714 465.543 619.172 466.351C622.629 467.158 626.086 465.01 626.894 461.553C627.702 458.095 625.553 454.638 622.096 453.83C618.639 453.023 615.181 455.171 614.374 458.628Z" fill="white"/>
<path d="M585.081 501.608C583.979 506.323 586.909 511.038 591.624 512.139C596.339 513.241 601.053 510.311 602.155 505.597C603.256 500.882 600.327 496.167 595.612 495.065C590.897 493.964 586.182 496.893 585.081 501.608Z" fill="#1DB776"/>
<path d="M602.159 505.595C602.522 504.04 602.444 502.485 602.011 501.059C599.939 503.265 596.781 504.339 593.622 503.601C590.462 502.863 588.107 500.502 587.226 497.606C586.206 498.692 585.448 500.051 585.084 501.607C583.983 506.322 586.912 511.037 591.627 512.138C596.342 513.239 601.058 510.31 602.159 505.595Z" fill="#128E5A"/>
<path d="M641.653 450.395C639.296 449.844 637.832 447.487 638.382 445.13L640.65 435.424C641.804 430.482 641.812 425.336 640.616 420.404C640.26 418.934 640.28 417.346 640.759 415.774C642.03 411.608 646.273 408.982 650.568 409.7C655.611 410.544 658.819 415.443 657.675 420.343C657.365 421.67 656.768 422.856 655.966 423.85C652.745 427.838 650.351 432.427 649.185 437.419L646.918 447.124C646.368 449.481 644.01 450.946 641.653 450.395Z" fill="#128E5A"/>
<path d="M664.742 487.556C664.191 489.913 665.655 492.27 668.013 492.821L677.719 495.088C682.661 496.242 687.278 498.515 691.169 501.771C692.33 502.742 693.763 503.428 695.384 503.694C699.682 504.4 703.916 501.76 705.175 497.591C706.652 492.697 703.681 487.65 698.781 486.505C697.454 486.195 696.127 486.205 694.88 486.484C689.878 487.604 684.703 487.718 679.711 486.552L670.006 484.285C667.65 483.734 665.292 485.199 664.742 487.556Z" fill="#1DB776"/>
<path d="M695.383 503.693C699.68 504.398 703.915 501.758 705.173 497.589C705.699 495.848 705.659 494.089 705.172 492.491C703.224 494.557 700.316 495.639 697.377 495.157C695.755 494.89 694.322 494.204 693.162 493.234C689.27 489.977 684.653 487.704 679.712 486.55L670.005 484.283C667.648 483.732 665.291 485.196 664.74 487.554C664.19 489.911 665.654 492.268 668.011 492.819L677.718 495.086C682.659 496.24 687.276 498.513 691.168 501.77C692.328 502.74 693.761 503.426 695.383 503.693Z" fill="#128E5A"/>
<path d="M628.63 544.686C628.94 543.359 628.931 542.032 628.652 540.786C628.602 540.566 628.557 540.345 628.512 540.124C626.321 542.479 622.896 543.556 619.542 542.544C616.674 541.678 614.53 539.403 613.702 536.668C613.592 536.805 613.483 536.942 613.371 537.077C612.4 538.237 611.715 539.669 611.449 541.29C610.743 545.585 613.382 549.818 617.549 551.076C622.442 552.553 627.486 549.583 628.63 544.686Z" fill="#128E5A"/>
<defs>
<linearGradient id="paint0_linear" x1="163.469" y1="667.935" x2="212.486" y2="804.075" gradientUnits="userSpaceOnUse">
<stop stop-color="#FFD8D8"/>
<stop offset="1" stop-color="#FFF8F8"/>
</linearGradient>
<linearGradient id="paint1_linear" x1="809.88" y1="322.942" x2="373.263" y2="85.5933" gradientUnits="userSpaceOnUse">
<stop stop-color="#FFF8F8"/>
<stop offset="1" stop-color="#FFCFCF"/>
</linearGradient>
<linearGradient id="paint2_linear" x1="791.068" y1="259.276" x2="633.348" y2="203.754" gradientUnits="userSpaceOnUse">
<stop stop-color="#FFD7D7"/>
<stop offset="1" stop-color="#FFF9F9"/>
</linearGradient>
<linearGradient id="paint3_linear" x1="784.645" y1="693.728" x2="144.477" y2="376.779" gradientUnits="userSpaceOnUse">
<stop stop-color="#FFCFCF"/>
<stop offset="1" stop-color="#FFF8F8"/>
</linearGradient>
</defs>
</svg>
