<svg width="131" height="134" viewBox="0 0 131 134" fill="none" xmlns="http://www.w3.org/2000/svg">
<path d="M113.1 29.0666C111.357 30.2494 110.857 32.6529 111.771 34.7971C109.283 36.9167 106.317 39.17 102.85 41.3515C100.92 42.5614 99.026 43.631 97.2116 44.5714C96.9875 44.2425 96.7566 43.9136 96.5211 43.5879C95.3753 42.0035 94.1357 40.5282 92.8251 39.1554C93.1863 37.8966 93.7319 36.4534 94.571 34.9478C96.0165 32.3315 97.8025 30.4822 99.3098 29.2316C101.393 30.4789 103.937 30.2415 105.312 28.5497C106.863 26.643 106.353 23.6161 104.165 21.7938C101.98 19.9678 98.9551 20.0267 97.4041 21.9335C95.9939 23.6716 96.2922 26.3392 98.0112 28.1812C97.2114 29.9895 95.7843 32.3544 93.281 34.2628C92.0488 35.2057 90.8211 35.8299 89.7656 36.2528C87.4879 34.2975 85.0368 32.6184 82.4522 31.2325C82.8141 29.4205 83.3313 27.4029 84.0979 25.262C85.2044 22.1576 86.5451 19.5397 87.8478 17.4139C90.1191 17.994 92.4074 17.0781 93.262 15.1066C94.2451 12.8446 92.9521 10.0437 90.3837 8.85218C87.8156 7.66112 84.9319 8.53712 83.9508 10.8019C83.0984 12.7669 83.9589 15.1417 85.8863 16.5075C85.2071 18.9413 84.212 21.7122 82.7168 24.623C81.7044 26.6056 80.6177 28.3421 79.5683 29.8244C77.0138 28.6903 74.3642 27.826 71.6621 27.2427C70.6878 24.6818 69.848 21.4757 69.6883 17.7671C69.5469 14.2941 70.0318 11.3336 70.6262 9.06923C72.985 8.92943 74.9024 7.29996 75.0803 5.10937C75.2871 2.62432 73.1941 0.360715 70.3978 0.0580165C67.6079 -0.254977 65.178 1.50646 64.976 3.98869C64.7981 6.17929 66.3979 8.20052 68.7015 8.85384C68.9165 11.1482 68.9254 14.1801 68.1943 17.6027C67.3874 21.3793 65.9632 24.3212 64.7244 26.3539C61.55 26.2259 58.3682 26.4698 55.2407 27.1043C54.8766 25.8841 54.6214 24.5757 54.5191 23.1825C54.4432 22.0742 54.4701 21.0317 54.563 20.0707C56.8973 19.5244 58.5173 17.5316 58.2843 15.3078C58.0321 12.8186 55.5653 10.9745 52.7788 11.1919C49.9921 11.4088 47.9415 13.5993 48.1961 16.0917C48.4235 18.2791 50.3578 19.9697 52.7138 20.1986C53.0034 21.2297 53.2514 22.3372 53.4386 23.5134C53.6607 24.862 53.7855 26.1622 53.829 27.4168C53.5174 27.4922 53.213 27.5681 52.9087 27.6538C49.3243 28.6024 45.8414 30.083 42.5573 32.1062C41.0189 31.0586 39.4377 29.8084 37.8763 28.3086C34.6938 25.2455 32.5949 22.0945 31.2248 19.5788C32.7968 17.8922 33.0975 15.4223 31.8158 13.6499C30.3387 11.6074 27.3219 11.2673 25.076 12.8914C22.8255 14.5189 22.1989 17.4937 23.676 19.5362C24.9796 21.3389 27.4841 21.8114 29.5994 20.7806C31.6487 22.7546 34.2133 25.7372 36.2498 29.872C37.1406 31.6962 37.7958 33.4719 38.2818 35.1568C35.417 37.4921 32.9737 40.162 30.9514 43.0796C30.1288 42.7351 29.3202 42.3337 28.4639 41.7898C26.7712 40.7103 25.4876 39.48 24.53 38.3755C25.6061 36.1657 25.0829 33.5406 23.2044 32.2424C21.1365 30.8162 18.2121 31.5404 16.6713 33.8625C15.1351 36.1814 15.5629 39.2192 17.6357 40.6426C19.4226 41.8714 21.8411 41.4988 23.458 39.884C24.8102 40.6263 26.2646 41.5577 27.7337 42.7484C28.5179 43.3742 29.2307 44.0255 29.8951 44.6861C28.1571 47.4713 26.794 50.45 25.8031 53.5518C24.0861 53.528 22.2453 53.3905 20.2984 53.0775C15.817 52.3556 12.1539 50.9404 9.46954 49.6267C9.69311 47.2794 8.42964 45.064 6.34885 44.413C3.96602 43.6692 1.4151 45.2538 0.650524 47.9517C-0.109181 50.6469 1.20301 53.4361 3.58096 54.1827C5.69103 54.836 7.92081 53.6768 8.942 51.5344C11.68 51.8615 15.5447 52.7053 19.6801 54.9457C21.5738 55.9686 23.2047 57.1155 24.6068 58.2708C24.4993 58.8388 24.3946 59.4204 24.3083 59.9986C23.8881 62.9051 23.7728 65.8704 23.9831 68.8368C23.0742 69.1565 22.1044 69.4493 21.0729 69.695C17.7182 70.4931 14.7318 70.5773 12.4213 70.4399C11.703 68.1471 9.65891 66.5913 7.50049 66.8362C5.05254 67.1108 3.37848 69.6118 3.76454 72.4198C4.14539 75.2302 6.44463 77.2821 8.90131 77.0005C11.0545 76.7579 12.6067 74.7956 12.6897 72.4164C14.903 71.7695 17.8253 71.1859 21.282 71.1979C22.3144 71.2017 23.2978 71.2621 24.2425 71.3549C24.8518 75.9718 26.2537 80.5477 28.4771 84.8741C27.0281 86.1287 25.4056 87.4015 23.5723 88.6406C20.9549 90.4104 18.4224 91.7721 16.1132 92.831C14.5941 90.8259 12.0358 90.0783 10.0987 91.1835C7.96594 92.4004 7.39641 95.3871 8.82275 97.8564C10.2536 100.322 13.1371 101.338 15.2646 100.124C17.1624 99.0404 17.8144 96.5595 16.9351 94.2829C19.0351 92.8296 21.4958 91.3401 24.3362 89.9646C26.306 89.0098 28.2012 88.2383 30.0101 87.596C30.5775 88.5335 31.1928 89.4513 31.8474 90.3564C33.4017 92.5058 35.1167 94.4665 36.9715 96.2288C36.0995 98.6349 34.6963 101.663 32.3595 104.767C30.3121 107.488 28.1395 109.481 26.2907 110.909C24.2997 109.589 21.7944 109.679 20.3291 111.255C18.6627 113.05 18.981 116.099 21.0486 118.059C23.1164 120.021 26.148 120.152 27.8144 118.357C29.26 116.802 29.2113 114.317 27.8359 112.405C29.305 110.357 31.1522 108.095 33.4659 105.819C36.1228 103.206 38.7571 101.201 41.0895 99.6683C44.0261 101.828 47.2068 103.551 50.5208 104.837C50.2161 105.973 49.824 107.16 49.295 108.388C48.2895 110.733 47.0661 112.625 45.896 114.122C43.7106 113.202 41.2839 113.783 40.1538 115.622C38.8709 117.718 39.7639 120.663 42.156 122.194C43.6585 123.153 45.3979 123.332 46.8016 122.808C47.631 122.503 48.3446 121.951 48.8236 121.17C48.9618 120.941 49.0807 120.695 49.1669 120.441C49.8479 118.555 49.0472 116.243 47.1706 114.843C48.032 113.091 49.1344 111.175 50.5749 109.211C51.5056 107.947 52.453 106.83 53.3849 105.835C55.3254 106.435 57.307 106.882 59.297 107.179C59.4845 107.208 59.6765 107.235 59.8586 107.258C60.3795 109.641 60.7832 112.702 60.6054 116.231C60.4297 119.686 59.7562 122.596 59.0309 124.832C56.68 124.82 54.6785 126.305 54.3501 128.459C53.9722 130.918 55.9144 133.317 58.6878 133.817C61.4495 134.321 64.0046 132.732 64.3775 130.276C64.7063 128.141 63.2838 126.05 61.0895 125.214C61.1257 122.722 61.3803 119.758 62.0873 116.503C62.8531 113.004 63.9502 110.03 65.0473 107.629C68.8068 107.649 72.5772 107.139 76.2299 106.085C76.9285 107.29 77.6092 108.642 78.2075 110.148C79.5134 113.425 80.0768 116.402 80.3114 118.723C78.1689 119.688 76.9601 121.896 77.5416 124.028C78.2058 126.447 80.9311 127.855 83.6308 127.174C86.3261 126.496 87.9756 123.98 87.3181 121.552C86.7424 119.446 84.611 118.104 82.287 118.245C81.3107 115.949 80.3372 113.102 79.6517 109.785C79.3223 108.163 79.1026 106.627 78.9681 105.179C81.654 104.183 84.2565 102.88 86.7372 101.246C88.5262 102.898 90.4089 104.833 92.2733 107.086C95.0489 110.437 97.1156 113.687 98.6486 116.494C97.0874 118.177 96.7912 120.643 98.0699 122.412C99.5469 124.454 102.563 124.794 104.818 123.163C107.064 121.539 107.687 118.568 106.21 116.525C104.936 114.764 102.512 114.269 100.43 115.212C98.224 112.802 95.8134 109.812 93.4757 106.217C91.9004 103.79 90.5962 101.442 89.5096 99.251C91.9521 97.3348 94.1018 95.1763 95.9506 92.8311C96.4053 93.0394 96.8657 93.265 97.3288 93.5042C100.393 95.0755 102.759 96.9146 104.476 98.5146C103.556 100.653 104.089 103.13 105.887 104.383C107.94 105.828 110.872 105.123 112.431 102.817C113.984 100.511 113.581 97.4697 111.523 96.0284C109.699 94.7484 107.185 95.1605 105.553 96.8786C103.579 95.975 100.901 94.3926 98.4123 91.6869C98.1018 91.353 97.8102 91.0167 97.5367 90.6766C99.4601 87.8803 100.991 84.8563 102.123 81.6916C104.446 81.8561 107.016 82.1991 109.773 82.8201C114.014 83.7733 117.593 85.1491 120.417 86.4751C120.21 88.8059 121.471 90.9994 123.537 91.6495C125.924 92.3887 128.47 90.8064 129.234 88.1084C129.995 85.4147 128.684 82.6268 126.304 81.8779C124.245 81.2376 122.058 82.3327 121.014 84.3854C117.879 83.8153 114.191 82.8911 110.186 81.3748C107.597 80.394 105.261 79.3141 103.187 78.214C103.548 76.8114 103.834 75.3906 104.048 73.9486C104.39 71.5931 104.533 69.2007 104.459 66.8051C106.886 65.9287 109.816 65.097 113.192 64.5872C116.446 64.0898 119.394 63.9992 121.889 64.096C122.596 66.3444 124.586 67.8919 126.716 67.6844C129.174 67.4523 130.89 64.9812 130.556 62.1688C130.22 59.3532 127.952 57.2676 125.494 57.4996C123.347 57.7039 121.758 59.6238 121.625 61.9825C119.343 62.5726 116.421 63.0796 113.013 63.0787C109.476 63.079 106.417 62.547 104.023 61.9116C103.683 59.6362 103.15 57.3706 102.421 55.1385C103.407 54.477 104.492 53.8269 105.662 53.2285C108.684 51.684 111.52 50.837 113.832 50.3642C115.081 52.4067 117.423 53.41 119.428 52.6373C121.72 51.7551 122.721 48.8968 121.664 46.251C120.603 43.608 117.891 42.1795 115.594 43.0649C113.582 43.8371 112.564 46.1454 113.066 48.4939C111.107 49.6734 108.432 50.9719 105.096 51.8144C103.831 52.1293 102.607 52.3479 101.45 52.4869C100.649 50.5092 99.6897 48.5716 98.5587 46.6923C100.132 45.3426 101.847 43.9682 103.718 42.6094C107.014 40.2109 110.195 38.2829 113.091 36.7363C114.756 38.3695 117.174 38.7805 118.915 37.6047C120.944 36.225 121.289 33.1952 119.677 30.8422C118.07 28.486 115.125 27.6906 113.1 29.0666" fill="#FFE1E1"/>
</svg>
