<svg width="1171" height="873" viewBox="0 0 1171 873" fill="none" xmlns="http://www.w3.org/2000/svg">
<path d="M541.104 722.83C505.933 743.162 469.065 756.385 427.087 756.212C380.298 756.015 333.915 724.62 304.603 690.164C293.712 677.367 284.188 662.576 281.98 645.921C276.894 607.443 312.105 596.498 343.809 596.986C361.679 597.253 378.962 602.205 396.052 607.115C424.425 615.276 456.066 616.004 482.685 629.677C491.62 634.282 498.837 640.469 508.731 643.189C524.123 647.425 540.84 647.671 556.499 651.22C569.875 654.277 585.35 660.518 587.872 673.998C590.443 687.826 577.653 699.318 565.999 707.177C557.754 712.766 549.485 718.002 541.104 722.83Z" fill="url(#paint0_linear)"/>
<path d="M292.8 267.685C333.798 157.432 457.155 86.9824 573.386 96.193C629.435 100.643 681.635 125.71 730.793 152.964C774.122 176.983 817.026 203.828 851.439 239.921C874.934 264.556 895.142 296.034 911.325 326.078C935.538 371.069 939.394 435.735 876.184 446.409C861.354 448.915 847.466 446.763 832.717 445.517C820.784 444.5 810.529 449.375 798.64 450.363C768.718 452.856 738.371 449.047 709.089 443.053C649.407 430.811 592.113 408.354 531.679 399.62C482.158 392.486 431.73 394.892 383.114 406.707C362.604 411.695 341.399 418.409 320.815 413.734C270.076 402.189 275.467 336.23 283.946 297.792C286.181 287.559 289.14 277.498 292.8 267.685Z" fill="url(#paint1_linear)"/>
<path d="M792.509 161.678C804.569 168.201 849.33 183.109 843.062 154.285C841.491 147.106 836.558 140.971 830.873 136.824C824.365 132.06 817.882 130.313 812.235 124.29C805.354 117.032 797.931 110.445 790.063 104.613C773.912 92.4207 755.963 81.8962 736.832 79.9338C723.415 78.5628 702.791 84.785 700.803 102.037C697.901 127.153 735.452 122.428 748.644 128.092C761.158 133.445 770.486 145.626 781.515 154.421C784.998 157.193 788.679 159.622 792.509 161.678Z" fill="url(#paint2_linear)"/>
<path d="M588.693 174.827C614.29 182.519 635.899 198.123 660.184 209.005C700.615 227.119 748.483 221.127 791.926 229.97C836.226 238.999 873.347 260.8 897.191 299.486C927.983 349.417 945.44 413.489 944.213 472.875C942.855 538.245 914.357 588.427 864.751 629.388C815.174 670.324 755.988 698.257 694.502 716.088C688.57 717.814 682.619 719.418 676.619 720.928C541.845 754.768 350.563 751.26 269.103 617.527C268.357 616.305 267.629 615.08 266.895 613.835C258.204 598.842 251.339 582.862 246.447 566.236C228.958 507.333 223.276 438.982 230.489 377.98C235.331 336.915 260.321 304.897 286.665 274.419C323.678 231.601 373.853 202.876 427.337 185.727C466.943 173.03 512.012 160.896 553.895 166.977C565.674 168.721 577.306 171.344 588.693 174.827Z" fill="url(#paint3_linear)"/>
<path d="M902.258 591.85C878.601 624.875 850.466 652.125 812.152 669.277C769.445 688.391 714.243 678.915 673.331 659.612C658.132 652.444 643.356 642.897 634.477 628.634C613.977 595.677 641.541 571.187 670.626 558.558C687.016 551.432 704.803 548.817 722.397 546.244C751.612 541.978 780.737 529.595 810.625 531.075C820.665 531.586 829.79 534.246 839.926 532.644C855.695 530.157 871.026 523.487 886.756 520.263C900.202 517.533 916.873 516.837 924.73 528.078C932.774 539.615 925.86 555.359 918.484 567.324C913.278 575.815 907.903 583.995 902.258 591.85Z" fill="url(#paint4_linear)"/>
<path d="M506.432 412.302C506.091 412.302 505.748 412.194 505.455 411.968C505.188 411.758 498.859 406.759 494.026 396.562C489.594 387.211 485.658 371.534 492.066 349.921C496.412 335.259 500.768 324.836 504.609 315.634C511.583 298.94 516.623 286.878 517.03 261.306C517.043 260.431 517.689 259.68 518.643 259.741C519.525 259.757 520.225 260.476 520.212 261.357C519.795 287.54 514.389 300.48 507.545 316.863C503.734 325.988 499.416 336.328 495.117 350.828C483.431 390.23 507.17 409.27 507.412 409.454C508.102 409.995 508.226 410.994 507.689 411.688C507.374 412.092 506.906 412.302 506.432 412.302Z" fill="#000C3E"/>
<path d="M636.799 161.035C636.561 178.369 622.316 192.232 604.979 191.994C587.645 191.755 573.785 177.51 574.021 160.173C574.259 142.839 588.507 128.979 605.841 129.215C623.175 129.454 637.038 143.701 636.799 161.035Z" fill="#000C3E"/>
<path d="M503.394 401.089C503.394 401.089 513.051 419.858 550.808 425.645C588.563 431.43 617.749 417.125 647.024 426.963C676.299 436.804 717.907 422.091 725.928 409.699C733.952 397.306 729.001 262.282 705.577 240.179C682.153 218.075 561.792 202.02 536.433 229.138C511.075 256.259 486.55 386.268 503.394 401.089Z" fill="#000C3E"/>
<path d="M717.938 289.38C717.155 346.508 670.209 392.185 613.078 391.402C555.95 390.62 510.273 343.67 511.055 286.542C511.841 229.414 558.788 183.737 615.916 184.52C673.044 185.306 718.721 232.252 717.938 289.38Z" fill="#000C3E"/>
<path d="M529.966 286.087C529.966 286.087 537.198 411.52 622.201 414.925C707.201 418.329 702.915 241.46 671.801 225.363C640.687 209.27 512.587 215.471 529.966 286.087Z" fill="#FFCEB0"/>
<path d="M617.744 310.891C617.744 310.891 634.871 349.145 630.761 351.805C626.65 354.462 614.432 354.296 611.075 351.534C607.719 348.773 611.012 306.726 617.744 310.891Z" fill="#F5A473"/>
<path d="M592.633 324.426C592.522 328.83 588.863 332.31 584.46 332.199C580.056 332.091 576.575 328.432 576.687 324.028C576.795 319.625 580.454 316.144 584.86 316.252C589.264 316.364 592.745 320.023 592.633 324.426Z" fill="#41294A"/>
<path d="M661.01 319.045C660.899 323.449 657.24 326.929 652.836 326.818C648.433 326.71 644.952 323.051 645.064 318.647C645.172 314.244 648.831 310.763 653.237 310.871C657.641 310.982 661.122 314.641 661.01 319.045Z" fill="#41294A"/>
<path d="M595.202 217.554C595.202 217.554 565.118 232.995 559.986 260.758C554.851 288.522 559.525 359.192 527.205 356.713C527.205 356.713 461.451 218.196 595.202 217.554Z" fill="#41294A"/>
<path d="M611.256 217.774C608.542 219.816 642.679 218.922 662.759 242.12C682.842 265.318 688.881 324.343 691.926 325.367C694.971 326.395 705.257 251.735 683.329 229.899C661.4 208.066 626.7 206.151 611.256 217.774Z" fill="#41294A"/>
<path d="M684.725 330.584C684.725 330.584 692.103 298.964 706.542 309.813C720.98 320.663 708.938 353.807 694.998 357.119C681.062 360.432 677.372 346.966 684.725 330.584Z" fill="#FFCEB0"/>
<path d="M550.746 328.746C550.746 328.746 544.236 296.935 529.505 307.384C514.777 317.833 525.906 351.299 539.747 354.993C553.591 358.683 557.647 345.326 550.746 328.746Z" fill="#FFCEB0"/>
<path d="M649.183 290.911C649.183 290.911 664.195 282.991 673.444 294.369C681.58 304.372 663.011 296.265 656.177 297.56C649.339 298.859 640.31 298.292 649.183 290.911Z" fill="#41294A"/>
<path d="M589.527 293.793C589.527 293.793 574.13 286.65 565.473 298.483C557.859 308.89 575.989 299.845 582.883 300.793C589.775 301.738 598.767 300.71 589.527 293.793Z" fill="#41294A"/>
<path d="M643.732 375.18C643.732 375.18 633.939 360.382 623.344 361.314C612.745 362.249 604.622 375.889 603.197 376.462C603.197 376.462 619.736 384.229 643.732 375.18Z" fill="#41294A"/>
<path d="M584.172 306.667C570.914 306.667 559.979 317.46 559.794 330.721C559.708 337.231 562.158 343.391 566.702 348.062C571.245 352.729 577.332 355.348 583.845 355.437L584.185 355.44C597.443 355.44 608.379 344.651 608.56 331.389C608.745 317.947 597.959 306.858 584.513 306.671L584.172 306.667ZM584.185 358.622L583.8 358.619C576.438 358.52 569.556 355.555 564.42 350.279C559.285 345.001 556.514 338.039 556.612 330.677C556.819 315.684 569.183 303.486 584.172 303.486L584.557 303.489C599.757 303.699 611.949 316.235 611.742 331.431C611.539 346.423 599.174 358.622 584.185 358.622Z" fill="#FFFCF6"/>
<path d="M653.038 301.156C639.777 301.156 628.841 311.948 628.66 325.209C628.475 338.649 639.264 349.741 652.707 349.925L653.048 349.928C666.309 349.928 677.245 339.139 677.426 325.878C677.515 319.365 675.062 313.205 670.522 308.534C665.978 303.87 659.891 301.248 653.378 301.159L653.038 301.156ZM653.048 353.11L652.666 353.107C637.463 352.897 625.271 340.361 625.478 325.165C625.685 310.173 638.046 297.974 653.038 297.974L653.423 297.977C660.786 298.076 667.668 301.041 672.8 306.316C677.938 311.595 680.71 318.556 680.608 325.919C680.401 340.911 668.037 353.11 653.048 353.11Z" fill="#FFFCF6"/>
<path d="M558.887 326.727C558.705 326.727 558.517 326.695 558.339 326.631L548.135 322.883C547.311 322.578 546.888 321.665 547.191 320.838C547.493 320.017 548.412 319.6 549.233 319.896L559.434 323.641C560.261 323.946 560.681 324.859 560.379 325.687C560.143 326.329 559.536 326.727 558.887 326.727Z" fill="#FFFCF6"/>
<path d="M677.873 319.496C677.196 319.496 676.566 319.061 676.356 318.38C676.092 317.543 676.559 316.649 677.399 316.385L691.345 312.032C692.178 311.765 693.076 312.239 693.337 313.076C693.601 313.916 693.133 314.807 692.293 315.071L678.347 319.426C678.192 319.474 678.029 319.496 677.873 319.496Z" fill="#FFFCF6"/>
<path d="M610.759 246.942C610.759 246.942 610.788 278.673 629.69 284.404C648.59 290.137 697.21 287.608 696.717 279.854C692.265 209.846 659.357 213.368 631.873 204.408C583.673 188.7 544.251 267.4 550.153 286.001C556.055 304.598 596.737 287.232 605.445 284.617C614.151 281.998 609.327 260.436 610.759 246.942Z" fill="#000C3E"/>
<g opacity="0.210007">
<g opacity="0.210007">
<path opacity="0.210007" d="M562.015 354.112C562.015 354.112 604.895 329.37 623.715 332.829C642.535 336.291 675.565 336.832 677.06 343.583C678.559 350.332 635.185 347.29 621.844 348.588C608.503 349.886 557.287 365.244 562.015 354.112Z" fill="#DB5C5D"/>
</g>
</g>
<path d="M586.013 337.556C585.386 337.556 584.791 337.183 584.539 336.563C584.209 335.752 584.6 334.823 585.414 334.492C589.726 332.735 590.524 331.351 590.531 331.339C590.814 330.505 591.686 330.117 592.526 330.413C593.356 330.696 593.773 331.663 593.49 332.497C593.289 333.082 592.204 335.163 586.611 337.438C586.413 337.518 586.213 337.556 586.013 337.556Z" fill="#DB5C5D"/>
<path d="M651.524 334.188C650.242 334.188 648.078 333.8 644.68 332.142C643.888 331.76 643.56 330.809 643.945 330.016C644.327 329.227 645.284 328.903 646.07 329.285C650.261 331.324 651.82 330.984 651.839 330.984C652.65 330.643 653.516 331.041 653.859 331.849C654.203 332.657 653.764 333.612 652.952 333.959C652.742 334.048 652.291 334.188 651.524 334.188Z" fill="#DB5C5D"/>
<path d="M610.128 331.541C609.323 331.541 608.629 330.933 608.546 330.112C608.457 329.237 609.094 328.454 609.969 328.368L627.042 326.625C627.898 326.517 628.696 327.169 628.785 328.044C628.875 328.919 628.238 329.702 627.363 329.788L610.29 331.531C610.236 331.537 610.182 331.541 610.128 331.541Z" fill="#FFFCF6"/>
<path d="M586.487 191.565C586.255 191.565 586.016 191.515 585.794 191.403C576.767 187.016 571.307 180.757 569.557 172.8C565.676 155.131 581.46 135.583 582.135 134.759C582.695 134.078 583.694 133.979 584.371 134.536C585.052 135.093 585.154 136.092 584.597 136.773C584.441 136.964 569.112 155.968 572.666 172.125C574.196 179.08 579.08 184.604 587.184 188.546C587.973 188.928 588.304 189.882 587.919 190.671C587.645 191.235 587.079 191.565 586.487 191.565Z" fill="#000C3E"/>
<path d="M622.817 196.294C622.375 196.294 621.936 196.109 621.621 195.753C621.041 195.091 621.105 194.089 621.767 193.507C621.951 193.344 640.196 177.121 639.343 160.598C638.977 153.487 635.067 147.235 627.72 142.014C627.004 141.508 626.835 140.515 627.345 139.796C627.854 139.083 628.846 138.915 629.562 139.424C637.742 145.233 642.105 152.306 642.521 160.445C643.444 178.508 624.665 195.196 623.864 195.899C623.561 196.163 623.189 196.294 622.817 196.294Z" fill="#000C3E"/>
<path d="M717.447 405.181C716.986 405.181 716.528 404.983 716.213 404.592C715.659 403.914 715.761 402.912 716.442 402.355C716.652 402.184 737.578 384.706 731.517 357.057C729.181 346.398 725.087 334.67 720.75 322.255C713.231 300.724 705.455 278.459 704.822 256.874C704.797 255.992 705.49 255.264 706.368 255.235C707.192 255.264 707.978 255.9 708.004 256.778C708.624 277.873 716.315 299.904 723.753 321.205C728.122 333.716 732.249 345.53 734.625 356.373C741.113 385.979 718.679 404.64 718.449 404.824C718.154 405.063 717.8 405.181 717.447 405.181Z" fill="#000C3E"/>
<path d="M723.098 291.551C723.047 291.551 722.993 291.548 722.939 291.545C722.067 291.459 721.428 290.679 721.513 289.804C724.262 261.967 718.405 239.374 704.109 222.641C681.09 195.708 643.691 193.236 643.319 193.213C642.441 193.162 641.77 192.412 641.824 191.53C641.871 190.655 642.626 189.962 643.501 190.038C643.892 190.06 682.639 192.618 706.527 220.573C721.408 237.99 727.517 261.388 724.679 290.116C724.6 290.94 723.906 291.551 723.098 291.551Z" fill="#000C3E"/>
<path d="M609.154 378.321C609.154 378.321 625.008 367.197 639.167 376.733C639.167 376.733 622.635 382.928 609.154 378.321Z" fill="#DB5C5D"/>
<path d="M619.644 389.741C618.079 389.741 616.733 389.725 615.903 389.712C615.025 389.699 614.325 388.977 614.337 388.096C614.35 387.217 614.951 386.505 615.954 386.53C621.961 386.61 629.139 386.463 630.256 386.04C631.073 385.728 631.996 386.136 632.311 386.953C632.626 387.774 632.225 388.687 631.407 389.006C629.816 389.623 623.911 389.741 619.644 389.741Z" fill="#DB5C5D"/>
<path d="M542.48 346.203C542.337 346.203 542.194 346.184 542.051 346.143C541.204 345.907 540.711 345.032 540.946 344.183C545.299 328.583 533.743 318.538 533.625 318.436C532.957 317.87 532.874 316.865 533.444 316.193C534.01 315.525 535.016 315.442 535.687 316.015C536.228 316.473 548.907 327.498 544.01 345.042C543.813 345.742 543.177 346.203 542.48 346.203Z" fill="#DB5C5D"/>
<path d="M690.92 350.003C690.885 350.003 690.853 350.003 690.815 350C689.94 349.943 689.275 349.185 689.329 348.31C690.519 329.847 699.367 319.977 699.746 319.567C700.338 318.917 701.343 318.873 701.989 319.465C702.638 320.057 702.683 321.062 702.094 321.711C702.008 321.806 693.618 331.234 692.508 348.514C692.45 349.357 691.75 350.003 690.92 350.003Z" fill="#DB5C5D"/>
<path d="M658.972 401.941C658.972 401.941 664.031 458.534 657.318 467.485C650.604 476.438 608.084 469.721 596.893 467.485C585.703 465.248 585.681 371.648 587.94 377.97C606.623 430.185 657.684 383.977 658.972 401.941Z" fill="#FFCEB0"/>
<path d="M591.986 407.539C591.986 407.539 622.152 422.038 656.445 404.487C656.445 404.487 659.111 425.57 656.445 430.431C653.782 435.293 599.46 438.767 588.766 414.806C588.766 414.806 588.9 406.498 591.986 407.539Z" fill="#F5A473"/>
<path d="M427.249 850.876H817.622C817.622 850.876 837.562 511.474 788.662 474.566C739.759 437.655 524.486 456.093 473.804 487.621C423.122 519.149 427.249 850.876 427.249 850.876Z" fill="#FB4C47"/>
<path d="M622.153 460.778C622.153 460.778 607.106 591.241 613.674 609.399C620.237 627.558 611.828 708.065 609.155 718.53C606.48 728.994 525.374 733.439 504.445 725.068C483.515 716.697 509.777 491.045 521.492 449.298C533.211 407.547 620.864 432.145 622.153 460.778Z" fill="#05BA6E"/>
<path d="M383.969 300.932C383.969 300.932 416.598 363.425 439.465 364.004C462.335 364.583 539.454 270.668 567.889 269.7C596.328 268.736 620.747 271.495 620.859 264.718C620.97 257.937 581.307 250.537 581.307 250.537C581.307 250.537 638.667 254.189 626.802 247.915C614.941 241.641 586.515 235.999 586.515 235.999C586.515 235.999 627.741 237.663 628.04 233.254C628.339 228.844 585.118 222.35 585.118 222.35C585.118 222.35 637.712 220.67 628.094 213.435C618.472 206.199 600.365 209.34 551.389 216.82C502.409 224.3 391.602 289.688 383.969 300.932Z" fill="#FFCEB0"/>
<path d="M441.214 297.938C441.214 297.938 493.41 329.03 470.683 364.265C446.483 401.784 447.838 390.638 443.654 405.818C439.467 420.998 508.441 450.563 511.578 463.557C514.715 476.548 482.201 636.332 451.745 629.774C425.235 624.069 277.915 540.466 256.743 456.92C240.332 392.15 374.102 233.722 441.214 297.938Z" fill="#FB4C47"/>
<path d="M577.845 662.398C577.845 662.398 520.011 789.801 541.274 806.862C562.538 823.919 579.672 812.805 598.476 823.878C617.283 834.95 635.323 829.414 650.43 819.78C665.537 810.142 626.22 683.391 609.958 671.323C593.697 659.252 580.776 655.777 577.845 662.398Z" fill="white"/>
<path d="M770.001 465.5C770.001 465.5 801.099 469.296 825.51 514C843.824 547.541 879.304 743.529 825.51 771.454C771.716 799.377 721.261 784.771 701.736 765.953C682.209 747.135 716.95 650.154 740.108 642.915C763.268 635.679 770.001 465.5 770.001 465.5Z" fill="#FB4C47"/>
<path d="M780.071 462.496C780.071 462.496 781.525 453.434 736.742 434.055C701.005 418.588 670.393 444.691 615.88 447.501C561.368 450.313 566.287 428.706 527.727 438.748C468.223 454.239 515.599 493.244 534.772 497.622C553.945 502 618.181 609.985 780.071 462.496Z" fill="#05BA6E"/>
<path d="M623.78 353.6C623.78 353.6 623.614 357.291 625.733 357.625C627.852 357.959 631.769 356.776 630.76 351.803C630.76 351.803 625.447 353.511 623.78 353.6Z" fill="white"/>
<path d="M844.514 659.318C844.365 659.318 844.212 659.309 844.059 659.287C842.589 659.077 841.501 657.893 841.345 656.483C838.695 653.419 820.899 647.002 809.028 642.719C785.509 634.234 774.962 630.037 772.693 625.446C770.768 621.554 771.63 615.942 772.722 608.837C774.449 597.593 776.603 583.593 769.463 570.109C757.134 546.822 758.308 512.281 758.366 510.824C758.436 509.067 759.953 507.661 761.665 507.766C763.421 507.833 764.79 509.312 764.726 511.065C764.71 511.409 763.565 545.371 775.089 567.131C783.212 582.479 780.784 598.27 779.012 609.801C778.162 615.321 777.364 620.536 778.398 622.627C780.326 625.601 798.898 632.302 811.186 636.734C838.879 646.725 848.495 650.744 847.658 656.588C847.432 658.176 846.07 659.318 844.514 659.318Z" fill="#B31B1F"/>
<path d="M761.5 633.159C761.223 633.159 760.943 633.124 760.66 633.047C750.148 630.18 733.816 627.196 733.654 627.164C731.923 626.852 730.777 625.195 731.092 623.467C731.407 621.736 733.059 620.572 734.793 620.906C735.47 621.027 751.554 623.967 762.334 626.906C764.03 627.371 765.029 629.118 764.567 630.814C764.182 632.23 762.9 633.159 761.5 633.159Z" fill="#B31B1F"/>
<path d="M818.653 790.54C818.603 790.54 818.555 790.54 818.507 790.536C759.613 787.867 700.936 762.779 697.763 738.916C696.768 731.417 696.048 727.665 695.603 725.81C694.413 725.219 693.691 723.952 693.904 722.568C694.308 719.947 696.083 719.017 697.493 719.017H697.528C700.732 719.052 701.795 720.93 704.073 738.079C706.535 756.603 759.957 781.513 818.793 784.179C820.55 784.259 821.908 785.745 821.829 787.501C821.752 789.21 820.343 790.54 818.653 790.54Z" fill="#B31B1F"/>
<path d="M713.077 734.226C712.845 734.226 712.609 734.2 712.371 734.149C710.659 733.761 709.584 732.056 709.972 730.341C710.109 729.727 724.025 668.383 737.032 624.256C737.529 622.569 739.31 621.602 740.984 622.105C742.67 622.601 743.634 624.37 743.135 626.056C730.185 669.987 716.316 731.133 716.179 731.747C715.842 733.224 714.531 734.226 713.077 734.226Z" fill="#B31B1F"/>
<path d="M437 600.994C436.845 600.994 436.682 600.982 436.523 600.959C434.786 600.699 433.59 599.076 433.851 597.342C434.178 595.146 442.034 543.3 452.814 519.039C463.294 495.463 468.659 471.558 468.713 471.32C469.088 469.605 470.784 468.532 472.509 468.902C474.224 469.283 475.305 470.986 474.924 472.701C474.704 473.7 469.365 497.467 458.63 521.626C448.2 545.098 440.22 597.755 440.141 598.284C439.905 599.865 438.547 600.994 437 600.994Z" fill="#B31B1F"/>
<path d="M388.497 419.977C380.028 419.977 370.536 419.462 360.088 418.132C358.344 417.909 357.11 416.318 357.332 414.575C357.552 412.831 359.184 411.619 360.889 411.819C392.707 415.873 415.31 412.141 426.961 409.598C421.158 407.743 413.028 405.936 404.915 406.378C386.658 407.237 359.944 390.928 358.815 390.228C357.32 389.305 356.858 387.345 357.781 385.85C358.704 384.354 360.667 383.887 362.159 384.816C362.42 384.975 388.351 400.817 404.587 400.021C420.054 399.207 438.371 406.095 440.035 409.051C440.63 410.104 440.582 411.472 439.905 412.475C439.275 413.4 437.97 413.957 436.825 413.887C436.322 413.945 434.833 414.301 433.385 414.645C426.427 416.312 411.091 419.974 388.497 419.977Z" fill="#B31B1F"/>
<path d="M466.708 351.594C465.525 351.594 464.389 350.932 463.842 349.799C463.762 349.637 455.817 333.499 442.289 327.104C426.93 319.84 409.561 294.523 408.829 293.451C407.84 291.997 408.215 290.015 409.666 289.028C411.123 288.042 413.099 288.421 414.086 289.865C414.257 290.113 431.213 314.823 445.012 321.348C460.603 328.727 469.212 346.287 469.572 347.028C470.335 348.613 469.671 350.509 468.089 351.273C467.644 351.492 467.173 351.594 466.708 351.594Z" fill="#B31B1F"/>
<path d="M614.497 536.501C614.379 536.501 614.259 536.488 614.141 536.46C613.285 536.265 612.747 535.41 612.944 534.557C613.021 534.22 620.609 501.047 622.83 484.196C626.289 457.925 614.523 448.761 614.405 448.672C613.702 448.144 613.555 447.151 614.077 446.448C614.599 445.742 615.585 445.592 616.292 446.111C616.842 446.515 629.709 456.318 625.983 484.61C623.746 501.613 616.123 534.932 616.047 535.263C615.878 536.005 615.223 536.501 614.497 536.501Z" fill="#08824F"/>
<path d="M520.663 488.657L517.503 488.291C517.503 488.291 519.972 466.811 521.261 456.251C522.562 445.599 525.601 438.325 525.731 438.02C526.072 437.205 527.007 436.836 527.815 437.17C528.623 437.514 529.002 438.449 528.662 439.257C528.63 439.327 525.661 446.454 524.42 456.639C523.132 467.19 520.663 488.654 520.663 488.657Z" fill="#08824F"/>
<path d="M611.008 841.386C592.863 841.386 582.885 840.787 569.076 839.96C551.312 838.894 526.988 837.437 470.143 836.553C468.387 836.527 466.984 835.083 467.012 833.323C467.041 831.567 468.587 830.103 470.242 830.189C527.227 831.074 551.634 832.54 569.455 833.609C583.155 834.427 593.05 835.022 611.008 835.022C633.487 835.022 653.653 832.559 673.157 830.18C690.278 828.086 706.447 826.113 723.778 825.728C760.747 824.914 788.374 825.725 788.647 825.728C790.404 825.786 791.785 827.252 791.731 829.005C791.676 830.762 790.194 832.063 788.457 832.092C788.183 832.082 760.712 831.268 723.921 832.092C706.906 832.467 690.886 834.424 673.927 836.495C654.235 838.901 633.875 841.386 611.008 841.386Z" fill="#B31B1F"/>
<path d="M755.143 798.932C753.562 798.932 751.978 798.223 750.597 796.136C746.298 789.642 745 789.107 736.689 790.386C729.171 791.56 726.202 786.231 724.236 782.709C723.581 781.531 722.957 780.421 722.413 779.991C720.949 778.837 717.293 780.224 715.747 781.076L714.204 778.296C714.879 777.92 720.873 774.723 724.386 777.494C725.426 778.318 726.161 779.635 727.014 781.156C728.913 784.551 730.879 788.048 736.202 787.243C745.716 785.773 748.258 786.845 753.25 794.379C754.574 796.384 755.719 796.11 759.248 794.052C761.927 792.48 765.99 790.109 769.019 794.341L766.435 796.193C765.255 794.554 764.186 794.85 760.851 796.797C759.257 797.73 757.202 798.932 755.143 798.932Z" fill="white"/>
<path d="M718.124 649.085C718.124 649.085 642.125 621.604 609.153 635.661C576.181 649.715 549.009 685.948 554.042 688.344C559.076 690.743 586.012 669.852 586.012 669.852C586.012 669.852 558.544 697.609 563.638 700.387C568.732 703.164 595.201 688.344 595.201 688.344C595.201 688.344 576.725 708.096 584.66 709.607C592.595 711.119 609.608 694.844 627.349 694.233C645.094 693.619 667.455 707.641 689.638 711.59C711.818 715.535 718.124 649.085 718.124 649.085Z" fill="#FFCEB0"/>
<path d="M832.818 634.84C832.621 634.84 832.423 634.821 832.223 634.783C832 634.744 809.62 630.513 782.865 625.072C781.143 624.722 780.03 623.042 780.38 621.321C780.727 619.599 782.403 618.486 784.131 618.839C810.842 624.267 833.184 628.489 833.407 628.534C835.134 628.858 836.267 630.522 835.939 632.25C835.653 633.777 834.317 634.84 832.818 634.84Z" fill="#B31B1F"/>
<path fill-rule="evenodd" clip-rule="evenodd" d="M620.41 134.769C619.579 134.769 618.676 134.866 617.697 135.059C615.312 135.538 613.767 136.697 612.839 138.708C608.702 147.662 617.424 168.986 623.656 181.585C627.507 167.609 632.122 144.248 625.601 136.886C624.345 135.471 622.636 134.769 620.41 134.769ZM623.839 192.049C623.939 192.068 624.04 192.082 624.142 192.09C624.474 192.218 624.828 192.284 625.186 192.284C625.517 192.284 625.849 192.229 626.172 192.111C630.422 190.562 667.844 176.527 672.505 160.355C673.626 156.467 672.837 152.632 670.225 149.273C665.782 143.553 660.982 142.873 657.735 143.305C648.524 144.534 639.457 156.434 632.808 167.74C635.16 154.863 636.066 139.992 629.922 133.056C627.755 130.608 623.673 127.983 616.568 129.398C612.398 130.23 609.294 132.615 607.598 136.29C601.32 149.887 615.762 179.169 620.575 188.244C614.506 189.415 608.402 189.679 602.563 189.283C589.984 188.428 578.834 184.516 572.177 180.237L569.798 183.938C577.164 188.673 589.052 192.775 602.265 193.673C609.194 194.143 616.543 193.737 623.839 192.049ZM659.327 148.971C659.054 148.971 658.777 148.987 658.5 149.029C648.744 150.327 636.957 171.018 630.725 184.107C643.68 178.652 664.228 168.233 666.957 158.759C667.571 156.626 667.159 154.741 665.668 152.817C663.661 150.235 661.582 148.971 659.327 148.971Z" fill="#FFD310"/>
<path d="M197.27 243.75H310.515C317.784 243.75 324.662 247.045 329.218 252.71L362.458 294.048C367.173 299.91 374.363 303.223 381.883 302.997L594.85 296.596" stroke="#FFB2B1" stroke-width="5" stroke-linejoin="round"/>
<path d="M209.361 244.265C209.361 249.301 205.279 253.384 200.243 253.384C195.207 253.384 191.124 249.301 191.124 244.265C191.124 239.229 195.207 235.147 200.243 235.147C205.279 235.147 209.361 239.229 209.361 244.265Z" fill="#FF383D"/>
<path d="M11.0007 244.366C11.0007 205.356 42.625 173.732 81.6348 173.732C120.645 173.732 152.266 205.356 152.266 244.366C152.266 283.376 120.645 315 81.6348 315C42.625 315 11.0007 283.376 11.0007 244.366Z" fill="#FFE1E2"/>
<path d="M81.3303 156.49C130.103 156.49 169.64 196.028 169.64 244.8C169.64 293.573 130.103 333.113 81.3303 333.113V376.724" stroke="#FFD6D7" stroke-width="2.4" stroke-miterlimit="10"/>
<path d="M74.0679 378.928C74.0679 374.916 77.3185 371.665 81.3301 371.665C85.3418 371.665 88.5924 374.916 88.5924 378.928C88.5924 382.939 85.3418 386.19 81.3301 386.19C77.3185 386.19 74.0679 382.939 74.0679 378.928Z" fill="#F2AEB0"/>
<path d="M49.127 251V234.607H59.2461V236.391H51.2109V241.869H58.4082V243.631H51.2109V251H49.127ZM61.6523 251V234.607H72.0723V236.391H63.7363V241.654H71.2559V243.395H63.7363V249.217H72.2656V251H61.6523ZM73.0176 234.607H75.2949L78.582 245.264C78.6966 245.679 78.8685 246.273 79.0977 247.047C79.3411 247.82 79.5202 248.429 79.6348 248.873L79.7207 248.895C79.8496 248.451 80.0215 247.849 80.2363 247.09C80.4512 246.316 80.623 245.708 80.752 245.264L84.0605 234.607H86.3594L80.9238 251H78.4531L73.0176 234.607ZM88.4219 251V234.607H98.8418V236.391H90.5059V241.654H98.0254V243.395H90.5059V249.217H99.0352V251H88.4219ZM104.02 242.32H108.102C109.147 242.32 109.949 242.055 110.508 241.525C111.066 240.981 111.346 240.243 111.346 239.312C111.346 238.439 111.052 237.737 110.465 237.207C109.878 236.663 109.047 236.391 107.973 236.391H104.02V242.32ZM101.936 251V234.607H108.402C110.035 234.607 111.288 235.044 112.162 235.918C113.05 236.792 113.494 237.873 113.494 239.162C113.494 240.308 113.215 241.239 112.656 241.955C112.112 242.671 111.496 243.13 110.809 243.33C111.382 243.66 111.797 244.046 112.055 244.49C112.312 244.934 112.527 245.572 112.699 246.402C112.857 247.076 112.979 247.598 113.064 247.971C113.165 248.329 113.322 248.787 113.537 249.346C113.766 249.89 114.046 250.441 114.375 251H112.033C111.446 249.954 110.938 248.472 110.508 246.553C110.322 245.765 110.049 245.163 109.691 244.748C109.348 244.318 108.789 244.104 108.016 244.104H104.02V251H101.936Z" fill="#FF383D"/>
<path d="M650.77 358.046H819.584C828.398 358.046 836.503 362.877 840.695 370.63L871.944 428.419C876.136 436.172 884.241 441.004 893.055 441.004H975.84" stroke="#FFB2B1" stroke-width="5" stroke-linejoin="round"/>
<path d="M979.944 440.905C979.944 445.941 975.862 450.023 970.826 450.023C965.79 450.023 961.708 445.941 961.708 440.905C961.708 435.868 965.79 431.786 970.826 431.786C975.862 431.786 979.944 435.868 979.944 440.905Z" fill="#FF383D"/>
<path opacity="0.15" d="M1005.73 459.366C1005.73 420.356 1037.36 388.732 1076.37 388.732C1115.38 388.732 1147 420.356 1147 459.366C1147 498.376 1115.38 530 1076.37 530C1037.36 530 1005.73 498.376 1005.73 459.366Z" fill="#FF383D"/>
<path d="M1045.41 443.109H1049.12C1050.07 443.109 1050.8 442.869 1051.31 442.387C1051.82 441.892 1052.07 441.221 1052.07 440.375C1052.07 439.581 1051.8 438.943 1051.27 438.461C1050.73 437.966 1049.98 437.719 1049 437.719H1045.41V443.109ZM1043.51 451V436.098H1049.39C1050.88 436.098 1052.02 436.495 1052.81 437.289C1053.62 438.083 1054.02 439.066 1054.02 440.238C1054.02 441.28 1053.77 442.126 1053.26 442.777C1052.77 443.428 1052.21 443.845 1051.58 444.027C1052.1 444.327 1052.48 444.678 1052.71 445.082C1052.95 445.486 1053.14 446.065 1053.3 446.82C1053.44 447.432 1053.55 447.908 1053.63 448.246C1053.72 448.572 1053.87 448.988 1054.06 449.496C1054.27 449.991 1054.52 450.492 1054.82 451H1052.69C1052.16 450.05 1051.7 448.702 1051.31 446.957C1051.14 446.241 1050.89 445.694 1050.57 445.316C1050.25 444.926 1049.75 444.731 1049.04 444.731H1045.41V451H1043.51ZM1056.93 445.551V436.098H1058.85V445.512C1058.85 446.931 1059.16 447.986 1059.78 448.676C1060.42 449.366 1061.26 449.711 1062.28 449.711C1063.34 449.711 1064.18 449.353 1064.8 448.637C1065.43 447.921 1065.74 446.879 1065.74 445.512V436.098H1067.66V445.551C1067.66 447.387 1067.19 448.813 1066.27 449.828C1065.36 450.844 1064.03 451.352 1062.28 451.352C1060.59 451.352 1059.28 450.857 1058.34 449.867C1057.4 448.865 1056.93 447.426 1056.93 445.551ZM1071.44 451V436.098H1073.53L1078.69 445.16L1080.43 448.246H1080.55C1080.38 447.035 1080.29 445.622 1080.29 444.008V436.098H1082.19V451H1080.1L1074.94 441.957L1073.2 438.871H1073.12C1073.27 440.225 1073.34 441.638 1073.34 443.109V451H1071.44ZM1086.05 451V436.098H1088.14L1093.3 445.16L1095.04 448.246H1095.16C1094.99 447.035 1094.9 445.622 1094.9 444.008V436.098H1096.8V451H1094.71L1089.55 441.957L1087.81 438.871H1087.73C1087.88 440.225 1087.95 441.638 1087.95 443.109V451H1086.05ZM1098.67 436.098H1100.9L1103.38 440.59C1103.91 441.579 1104.39 442.478 1104.82 443.285H1104.88C1105.05 442.973 1105.3 442.51 1105.62 441.898C1105.96 441.273 1106.2 440.837 1106.35 440.59L1108.81 436.098H1111.03L1105.82 444.906V451H1103.92V444.906L1098.67 436.098ZM1051.39 480V465.098H1053.48L1058.63 474.16L1060.37 477.246H1060.49C1060.32 476.035 1060.23 474.622 1060.23 473.008V465.098H1062.13V480H1060.04L1054.88 470.957L1053.14 467.871H1053.07C1053.21 469.225 1053.28 470.638 1053.28 472.109V480H1051.39ZM1065.02 472.559C1065.02 470.215 1065.59 468.327 1066.72 466.895C1067.86 465.462 1069.39 464.746 1071.29 464.746C1073.2 464.746 1074.72 465.462 1075.84 466.895C1076.97 468.327 1077.54 470.221 1077.54 472.578C1077.54 474.948 1076.97 476.836 1075.82 478.242C1074.69 479.648 1073.18 480.352 1071.29 480.352C1069.39 480.352 1067.86 479.648 1066.72 478.242C1065.59 476.823 1065.02 474.928 1065.02 472.559ZM1066.97 472.559C1066.97 474.447 1067.36 475.944 1068.12 477.051C1068.91 478.158 1069.96 478.711 1071.29 478.711C1072.6 478.711 1073.64 478.171 1074.41 477.09C1075.19 475.996 1075.59 474.492 1075.59 472.578C1075.59 470.69 1075.21 469.186 1074.45 468.066C1073.7 466.934 1072.64 466.367 1071.29 466.367C1069.96 466.367 1068.91 466.927 1068.12 468.047C1067.36 469.167 1066.97 470.671 1066.97 472.559ZM1079.18 477.07L1080.9 476.465C1081.29 477.155 1081.82 477.702 1082.5 478.106C1083.19 478.509 1083.98 478.711 1084.88 478.711C1085.85 478.711 1086.63 478.477 1087.23 478.008C1087.82 477.539 1088.12 476.908 1088.12 476.113C1088.12 475.697 1088.03 475.332 1087.85 475.02C1087.68 474.694 1087.41 474.414 1087.03 474.18C1086.65 473.945 1086.29 473.757 1085.96 473.613C1085.63 473.47 1085.19 473.307 1084.63 473.125C1083.08 472.617 1082.02 472.181 1081.44 471.816C1080.27 471.061 1079.69 470.026 1079.69 468.711C1079.69 467.513 1080.15 466.556 1081.07 465.84C1082.01 465.111 1083.24 464.746 1084.76 464.746C1085.96 464.746 1087 465.026 1087.87 465.586C1088.74 466.133 1089.37 466.829 1089.76 467.676L1088.14 468.223C1087.35 466.986 1086.21 466.367 1084.73 466.367C1083.78 466.367 1083.02 466.582 1082.46 467.012C1081.91 467.441 1081.64 468.008 1081.64 468.711C1081.64 469.115 1081.74 469.473 1081.93 469.785C1082.13 470.098 1082.43 470.371 1082.83 470.606C1083.23 470.827 1083.62 471.009 1083.98 471.152C1084.35 471.296 1084.83 471.465 1085.43 471.66C1085.6 471.712 1085.72 471.751 1085.8 471.777C1086.42 471.986 1086.95 472.194 1087.38 472.402C1087.82 472.598 1088.27 472.865 1088.71 473.203C1089.17 473.529 1089.5 473.932 1089.73 474.414C1089.96 474.883 1090.08 475.43 1090.08 476.055C1090.08 477.409 1089.6 478.464 1088.63 479.219C1087.68 479.974 1086.42 480.352 1084.84 480.352C1083.49 480.352 1082.32 480.059 1081.35 479.473C1080.38 478.874 1079.66 478.073 1079.18 477.07ZM1092.75 480V465.098H1102.23V466.719H1094.65V471.504H1101.48V473.086H1094.65V478.379H1102.4V480H1092.75Z" fill="#FF383D"/>
<path d="M1081.03 371.265C1129.8 371.265 1169.34 410.803 1169.34 459.578C1169.34 508.35 1129.8 547.888 1081.03 547.888V591.502" stroke="#FFD6D7" stroke-width="2.4" stroke-miterlimit="10"/>
<path d="M1073.77 593.704C1073.77 589.692 1077.02 586.442 1081.03 586.442C1085.04 586.442 1088.29 589.692 1088.29 593.704C1088.29 597.716 1085.04 600.966 1081.03 600.966C1077.02 600.966 1073.77 597.716 1073.77 593.704Z" fill="#F2AEB0"/>
<path opacity="0.15" d="M11.0007 730.366C11.0007 691.356 42.625 659.732 81.6348 659.732C120.645 659.732 152.266 691.356 152.266 730.366C152.266 769.376 120.645 801 81.6348 801C42.625 801 11.0007 769.376 11.0007 730.366Z" fill="#FF383D"/>
<g filter="url(#filter0_d)">
<path d="M26.9343 738V723.098H31.0945C33.269 723.098 34.9682 723.736 36.1921 725.012C37.4291 726.288 38.0476 728.137 38.0476 730.559C38.0476 732.824 37.4617 734.634 36.2898 735.988C35.1179 737.329 33.3731 738 31.0554 738H26.9343ZM28.8289 736.398H30.8015C32.4552 736.398 33.7507 735.936 34.6882 735.012C35.6257 734.074 36.0945 732.59 36.0945 730.559C36.0945 726.665 34.3432 724.719 30.8406 724.719H28.8289V736.398ZM38.3015 723.098H40.5281L43.0085 727.59C43.5424 728.579 44.0242 729.478 44.4539 730.285H44.5125C44.6817 729.973 44.9291 729.51 45.2546 728.898C45.5932 728.273 45.8341 727.837 45.9773 727.59L48.4382 723.098H50.6648L45.45 731.906V738H43.5554V731.906L38.3015 723.098ZM52.5398 738V723.098H58.2234C59.7078 723.098 60.8731 723.501 61.7195 724.309C62.5789 725.116 63.0085 726.19 63.0085 727.531C63.0085 728.898 62.5723 729.979 61.7 730.773C60.8276 731.568 59.6752 731.965 58.2429 731.965H54.4343V738H52.5398ZM54.4343 730.363H57.9695C58.946 730.363 59.7013 730.129 60.2351 729.66C60.782 729.178 61.0554 728.469 61.0554 727.531C61.0554 726.62 60.7885 725.923 60.2546 725.441C59.7208 724.96 58.946 724.719 57.9304 724.719H54.4343V730.363ZM64.4539 735.07L66.1726 734.465C66.5632 735.155 67.0971 735.702 67.7742 736.106C68.4643 736.509 69.2585 736.711 70.157 736.711C71.1205 736.711 71.9018 736.477 72.5007 736.008C73.0997 735.539 73.3992 734.908 73.3992 734.113C73.3992 733.697 73.308 733.332 73.1257 733.02C72.9565 732.694 72.683 732.414 72.3054 732.18C71.9278 731.945 71.5697 731.757 71.2312 731.613C70.9057 731.47 70.463 731.307 69.9031 731.125C68.3536 730.617 67.2924 730.181 66.7195 729.816C65.5476 729.061 64.9617 728.026 64.9617 726.711C64.9617 725.513 65.4239 724.556 66.3484 723.84C67.2859 723.111 68.5164 722.746 70.0398 722.746C71.2377 722.746 72.2729 723.026 73.1453 723.586C74.0177 724.133 74.6492 724.829 75.0398 725.676L73.4187 726.223C72.6244 724.986 71.4851 724.367 70.0007 724.367C69.0502 724.367 68.295 724.582 67.7351 725.012C67.1882 725.441 66.9148 726.008 66.9148 726.711C66.9148 727.115 67.0125 727.473 67.2078 727.785C67.4031 728.098 67.7026 728.371 68.1062 728.606C68.5098 728.827 68.894 729.009 69.2585 729.152C69.6231 729.296 70.1049 729.465 70.7039 729.66C70.8731 729.712 70.9968 729.751 71.075 729.777C71.7 729.986 72.2273 730.194 72.657 730.402C73.0997 730.598 73.5424 730.865 73.9851 731.203C74.4408 731.529 74.7794 731.932 75.0007 732.414C75.2351 732.883 75.3523 733.43 75.3523 734.055C75.3523 735.409 74.8705 736.464 73.907 737.219C72.9565 737.974 71.6934 738.352 70.1179 738.352C68.7638 738.352 67.5984 738.059 66.6218 737.473C65.6583 736.874 64.9356 736.073 64.4539 735.07ZM78.0281 738V723.098H80.1179L85.2742 732.16L87.0125 735.246H87.1296C86.9604 734.035 86.8757 732.622 86.8757 731.008V723.098H88.7703V738H86.6804L81.5242 728.957L79.7859 725.871H79.7078C79.851 727.225 79.9226 728.638 79.9226 730.109V738H78.0281ZM91.6609 730.559C91.6609 728.215 92.2273 726.327 93.3601 724.895C94.5059 723.462 96.0294 722.746 97.9304 722.746C99.8445 722.746 101.361 723.462 102.481 724.895C103.614 726.327 104.18 728.221 104.18 730.578C104.18 732.948 103.608 734.836 102.462 736.242C101.329 737.648 99.8184 738.352 97.9304 738.352C96.0294 738.352 94.5059 737.648 93.3601 736.242C92.2273 734.823 91.6609 732.928 91.6609 730.559ZM93.614 730.559C93.614 732.447 93.9981 733.944 94.7664 735.051C95.5476 736.158 96.6023 736.711 97.9304 736.711C99.2455 736.711 100.287 736.171 101.055 735.09C101.837 733.996 102.227 732.492 102.227 730.578C102.227 728.69 101.85 727.186 101.094 726.066C100.339 724.934 99.2846 724.367 97.9304 724.367C96.6023 724.367 95.5476 724.927 94.7664 726.047C93.9981 727.167 93.614 728.671 93.614 730.559ZM107.052 738V723.098H116.524V724.719H108.946V729.504H115.782V731.086H108.946V736.379H116.7V738H107.052ZM121.524 732.395H126.739L125.157 727.766C125.079 727.531 124.923 727.069 124.688 726.379C124.467 725.689 124.304 725.188 124.2 724.875H124.083C123.992 725.162 123.829 725.643 123.594 726.32C123.373 726.997 123.217 727.479 123.126 727.766L121.524 732.395ZM117.52 738L123.028 723.098H125.255L130.743 738H128.692L127.286 733.918H120.997L119.571 738H117.52Z" fill="#FF383D"/>
</g>
<path d="M81.3325 642.642C130.105 642.642 169.643 682.18 169.643 730.952C169.643 779.727 130.105 819.265 81.3325 819.265V862.876" stroke="#FFD6D7" stroke-width="2.4" stroke-miterlimit="10"/>
<path d="M74.0701 865.08C74.0701 861.068 77.3207 857.818 81.3323 857.818C85.344 857.818 88.5946 861.068 88.5946 865.08C88.5946 869.089 85.344 872.342 81.3323 872.342C77.3207 872.342 74.0701 869.089 74.0701 865.08Z" fill="#F2AEB0"/>
<path d="M186.74 742.834H365.033C374.666 742.834 383.365 737.075 387.127 728.207L443.54 595.233C447.302 586.365 456.002 580.606 465.634 580.606H672.809" stroke="#FFB2B1" stroke-width="5" stroke-linejoin="round"/>
<path d="M201.987 743.241C201.987 748.277 197.904 752.359 192.868 752.359C187.832 752.359 183.75 748.277 183.75 743.241C183.75 738.205 187.832 734.122 192.868 734.122C197.904 734.122 201.987 738.205 201.987 743.241Z" fill="#FF383D"/>
<path opacity="0.15" d="M159.268 488.366C159.268 449.356 127.644 417.732 88.6338 417.732C49.624 417.732 17.9998 449.356 17.9998 488.366C17.9998 527.376 49.624 559 88.6338 559C127.644 559 159.268 527.376 159.268 488.366Z" fill="#FF383D"/>
<path d="M31.6318 486.967V485.498H41.4173V486.967H37.3828V499H35.6663V486.967H31.6318ZM43.3284 499V485.498H45.0448V491.338H51.2736V485.498H52.99V499H51.2736V492.771H45.0448V499H43.3284ZM58.1925 491.851H61.5546C62.4157 491.851 63.0764 491.633 63.5364 491.196C63.9965 490.748 64.2266 490.141 64.2266 489.374C64.2266 488.654 63.9847 488.076 63.5011 487.64C63.0174 487.191 62.3332 486.967 61.4484 486.967H58.1925V491.851ZM56.476 499V485.498H61.8023C63.1471 485.498 64.1794 485.858 64.899 486.578C65.6304 487.297 65.9961 488.188 65.9961 489.25C65.9961 490.194 65.7661 490.96 65.306 491.55C64.8577 492.14 64.3504 492.518 63.7842 492.683C64.2561 492.954 64.5982 493.273 64.8105 493.638C65.0228 494.004 65.1998 494.529 65.3414 495.213C65.4711 495.768 65.5714 496.198 65.6422 496.505C65.7248 496.8 65.8545 497.177 66.0315 497.637C66.2202 498.086 66.4503 498.54 66.7216 499H64.7928C64.3091 498.139 63.8903 496.918 63.5364 495.337C63.3831 494.688 63.1589 494.193 62.864 493.851C62.5809 493.497 62.1208 493.32 61.4838 493.32H58.1925V499H56.476ZM67.801 492.258C67.801 490.135 68.3142 488.424 69.3405 487.126C70.3786 485.829 71.7589 485.18 73.4812 485.18C75.2154 485.18 76.5897 485.829 77.6042 487.126C78.6305 488.424 79.1437 490.141 79.1437 492.276C79.1437 494.423 78.6246 496.133 77.5865 497.407C76.5602 498.681 75.1918 499.319 73.4812 499.319C71.7589 499.319 70.3786 498.681 69.3405 497.407C68.3142 496.122 67.801 494.405 67.801 492.258ZM69.5705 492.258C69.5705 493.969 69.9186 495.325 70.6146 496.328C71.3224 497.331 72.2779 497.832 73.4812 497.832C74.6727 497.832 75.6164 497.343 76.3125 496.363C77.0203 495.372 77.3742 494.01 77.3742 492.276C77.3742 490.565 77.0321 489.203 76.3479 488.188C75.6636 487.162 74.7081 486.649 73.4812 486.649C72.2779 486.649 71.3224 487.156 70.6146 488.17C69.9186 489.185 69.5705 490.548 69.5705 492.258ZM83.3729 493.921H88.0975L86.6642 489.728C86.5934 489.515 86.4519 489.097 86.2395 488.471C86.039 487.846 85.8915 487.392 85.7971 487.109H85.691C85.6084 487.368 85.4609 487.805 85.2486 488.418C85.048 489.032 84.9065 489.468 84.8239 489.728L83.3729 493.921ZM79.7454 499L84.7354 485.498H86.7527L91.7251 499H89.8671L88.593 495.302H82.8951L81.6034 499H79.7454ZM91.265 486.967V485.498H101.051V486.967H97.016V499H95.2995V486.967H91.265ZM107.385 499V485.498H112.535C113.88 485.498 114.935 485.864 115.702 486.596C116.481 487.327 116.87 488.3 116.87 489.515C116.87 490.754 116.475 491.733 115.685 492.453C114.894 493.172 113.85 493.532 112.552 493.532H109.102V499H107.385ZM109.102 492.081H112.305C113.189 492.081 113.874 491.869 114.357 491.444C114.853 491.008 115.101 490.365 115.101 489.515C115.101 488.69 114.859 488.058 114.375 487.622C113.891 487.185 113.189 486.967 112.269 486.967H109.102V492.081ZM119.861 493.921H124.585L123.152 489.728C123.081 489.515 122.94 489.097 122.727 488.471C122.527 487.846 122.379 487.392 122.285 487.109H122.179C122.096 487.368 121.949 487.805 121.736 488.418C121.536 489.032 121.394 489.468 121.312 489.728L119.861 493.921ZM116.233 499L121.223 485.498H123.24L128.213 499H126.355L125.081 495.302H119.383L118.091 499H116.233ZM129.894 499V485.498H131.61V499H129.894ZM135.096 499V485.498H136.99L141.661 493.709L143.236 496.505H143.342C143.189 495.408 143.112 494.128 143.112 492.665V485.498H144.829V499H142.935L138.264 490.807L136.689 488.011H136.618C136.748 489.238 136.813 490.518 136.813 491.851V499H135.096Z" fill="#FF383D"/>
<path d="M89.9726 400.026C41.2003 400.026 1.6626 439.563 1.6626 488.338C1.6626 537.111 41.2003 576.648 89.9726 576.648V620.262" stroke="#FFD6D7" stroke-width="2.4" stroke-miterlimit="10"/>
<path d="M97.4327 622.545C97.4327 618.533 94.1821 615.283 90.1705 615.283C86.1615 615.283 82.9082 618.533 82.9082 622.545C82.9082 626.556 86.1615 629.807 90.1705 629.807C94.1821 629.807 97.4327 626.556 97.4327 622.545Z" fill="#F2AEB0"/>
<path d="M190.511 503.07H393.822C401.243 503.07 408.246 499.638 412.792 493.772L455.528 438.629C460.074 432.763 467.077 429.331 474.498 429.331H631.721" stroke="#FFB2B1" stroke-width="5" stroke-linejoin="round"/>
<path d="M200.761 503.586C200.761 508.622 196.678 512.704 191.642 512.704C186.606 512.704 182.524 508.622 182.524 503.586C182.524 498.55 186.606 494.468 191.642 494.468C196.678 494.468 200.761 498.55 200.761 503.586Z" fill="#FF383D"/>
<path opacity="0.13" d="M1160 700.366C1160 661.356 1128.38 629.732 1089.37 629.732C1050.36 629.732 1018.74 661.356 1018.74 700.366C1018.74 739.376 1050.36 771 1089.37 771C1128.38 771 1160 739.376 1160 700.366Z" fill="#FF383D"/>
<path d="M1042.04 688.777L1043.93 688.111C1044.36 688.87 1044.95 689.472 1045.69 689.916C1046.45 690.36 1047.33 690.582 1048.32 690.582C1049.38 690.582 1050.24 690.324 1050.89 689.809C1051.55 689.293 1051.88 688.598 1051.88 687.725C1051.88 687.266 1051.78 686.865 1051.58 686.521C1051.4 686.163 1051.09 685.855 1050.68 685.598C1050.26 685.34 1049.87 685.132 1049.5 684.975C1049.14 684.817 1048.65 684.638 1048.04 684.437C1046.33 683.879 1045.16 683.399 1044.53 682.998C1043.25 682.167 1042.6 681.029 1042.6 679.582C1042.6 678.264 1043.11 677.212 1044.13 676.424C1045.16 675.622 1046.51 675.221 1048.19 675.221C1049.5 675.221 1050.64 675.529 1051.6 676.144C1052.56 676.746 1053.26 677.512 1053.69 678.443L1051.9 679.045C1051.03 677.684 1049.78 677.004 1048.14 677.004C1047.1 677.004 1046.27 677.24 1045.65 677.713C1045.05 678.185 1044.75 678.809 1044.75 679.582C1044.75 680.026 1044.86 680.42 1045.07 680.764C1045.29 681.107 1045.62 681.408 1046.06 681.666C1046.5 681.909 1046.93 682.11 1047.33 682.268C1047.73 682.425 1048.26 682.611 1048.92 682.826C1049.1 682.883 1049.24 682.926 1049.33 682.955C1050.01 683.184 1050.59 683.413 1051.07 683.643C1051.55 683.857 1052.04 684.151 1052.53 684.523C1053.03 684.881 1053.4 685.325 1053.64 685.855C1053.9 686.371 1054.03 686.973 1054.03 687.66C1054.03 689.15 1053.5 690.31 1052.44 691.141C1051.4 691.971 1050.01 692.387 1048.27 692.387C1046.78 692.387 1045.5 692.064 1044.43 691.42C1043.37 690.761 1042.57 689.88 1042.04 688.777ZM1056.97 692V675.607H1059.06V682.697H1066.62V675.607H1068.7V692H1066.62V684.437H1059.06V692H1056.97ZM1075.13 685.834H1080.86L1079.12 680.742C1079.04 680.484 1078.87 679.976 1078.61 679.217C1078.37 678.458 1078.19 677.906 1078.07 677.562H1077.94C1077.84 677.878 1077.66 678.407 1077.41 679.152C1077.16 679.897 1076.99 680.427 1076.89 680.742L1075.13 685.834ZM1070.72 692L1076.78 675.607H1079.23L1085.27 692H1083.01L1081.47 687.51H1074.55L1072.98 692H1070.72ZM1087.31 692V675.607H1089.39V683.836H1089.44L1096.51 675.607H1099.23L1092.96 682.719L1099.51 692H1096.94L1091.63 684.223L1089.39 686.758V692H1087.31ZM1101.62 692V675.607H1103.7V692H1101.62ZM1107.94 692V675.607H1110.23L1115.91 685.576L1117.82 688.971H1117.95C1117.76 687.639 1117.67 686.085 1117.67 684.309V675.607H1119.75V692H1117.45L1111.78 682.053L1109.87 678.658H1109.78C1109.94 680.148 1110.02 681.702 1110.02 683.32V692H1107.94ZM1122.93 683.814C1122.93 681.294 1123.58 679.231 1124.86 677.627C1126.17 676.023 1127.93 675.221 1130.15 675.221C1130.92 675.221 1131.64 675.342 1132.3 675.586C1132.97 675.829 1133.53 676.152 1133.97 676.553C1134.43 676.939 1134.8 677.326 1135.07 677.713C1135.36 678.085 1135.59 678.465 1135.78 678.852L1134 679.453C1132.98 677.82 1131.7 677.004 1130.15 677.004C1128.55 677.004 1127.3 677.627 1126.41 678.873C1125.52 680.119 1125.08 681.766 1125.08 683.814C1125.08 685.92 1125.54 687.574 1126.45 688.777C1127.37 689.98 1128.57 690.582 1130.06 690.582C1131.4 690.582 1132.43 690.167 1133.16 689.336C1133.89 688.491 1134.27 687.474 1134.3 686.285C1134.3 686.156 1134.3 685.92 1134.3 685.576C1134.31 685.218 1134.32 684.967 1134.32 684.824H1129.89V683.041H1136.34V692H1134.85L1134.68 689.852C1133.8 691.542 1132.23 692.387 1130 692.387C1127.92 692.387 1126.23 691.62 1124.91 690.088C1123.59 688.541 1122.93 686.45 1122.93 683.814ZM1053.28 712.814C1053.28 710.165 1053.93 708.074 1055.23 706.541C1056.55 704.994 1058.26 704.221 1060.37 704.221C1061.69 704.221 1062.81 704.586 1063.74 705.316C1064.67 706.032 1065.37 706.906 1065.83 707.937L1064.04 708.539C1063.08 706.849 1061.84 706.004 1060.33 706.004C1058.82 706.004 1057.63 706.627 1056.74 707.873C1055.86 709.105 1055.43 710.752 1055.43 712.814C1055.43 714.906 1055.87 716.56 1056.76 717.777C1057.66 718.98 1058.85 719.582 1060.33 719.582C1061.27 719.582 1062.09 719.317 1062.8 718.787C1063.51 718.243 1064.04 717.577 1064.39 716.789L1066.26 717.391C1066.04 717.878 1065.77 718.336 1065.44 718.766C1065.12 719.195 1064.73 719.618 1064.26 720.033C1063.78 720.449 1063.21 720.778 1062.54 721.021C1061.88 721.265 1061.16 721.387 1060.37 721.387C1058.29 721.387 1056.59 720.628 1055.26 719.109C1053.94 717.591 1053.28 715.493 1053.28 712.814ZM1068.94 721V704.607H1071.02V711.697H1078.59V704.607H1080.67V721H1078.59V713.437H1071.02V721H1068.94ZM1084.9 721V704.607H1086.99V721H1084.9ZM1091.22 721V704.607H1093.3V719.217H1100.97V721H1091.22ZM1103.27 721V704.607H1105.36V719.217H1113.03V721H1103.27ZM1113.97 717.777L1115.86 717.111C1116.29 717.87 1116.88 718.472 1117.62 718.916C1118.38 719.36 1119.26 719.582 1120.25 719.582C1121.31 719.582 1122.16 719.324 1122.82 718.809C1123.48 718.293 1123.81 717.598 1123.81 716.725C1123.81 716.266 1123.71 715.865 1123.51 715.521C1123.33 715.163 1123.02 714.855 1122.61 714.598C1122.19 714.34 1121.8 714.132 1121.43 713.975C1121.07 713.817 1120.58 713.638 1119.97 713.437C1118.26 712.879 1117.09 712.399 1116.46 711.998C1115.18 711.167 1114.53 710.029 1114.53 708.582C1114.53 707.264 1115.04 706.212 1116.06 705.424C1117.09 704.622 1118.44 704.221 1120.12 704.221C1121.43 704.221 1122.57 704.529 1123.53 705.144C1124.49 705.746 1125.19 706.512 1125.62 707.443L1123.83 708.045C1122.96 706.684 1121.71 706.004 1120.07 706.004C1119.03 706.004 1118.2 706.24 1117.58 706.713C1116.98 707.185 1116.68 707.809 1116.68 708.582C1116.68 709.026 1116.79 709.42 1117 709.764C1117.22 710.107 1117.55 710.408 1117.99 710.666C1118.43 710.909 1118.86 711.11 1119.26 711.268C1119.66 711.425 1120.19 711.611 1120.85 711.826C1121.03 711.883 1121.17 711.926 1121.26 711.955C1121.94 712.184 1122.52 712.413 1123 712.643C1123.48 712.857 1123.97 713.151 1124.46 713.523C1124.96 713.881 1125.33 714.325 1125.57 714.855C1125.83 715.371 1125.96 715.973 1125.96 716.66C1125.96 718.15 1125.43 719.31 1124.37 720.141C1123.33 720.971 1121.94 721.387 1120.2 721.387C1118.71 721.387 1117.43 721.064 1116.36 720.42C1115.3 719.761 1114.5 718.88 1113.97 717.777Z" fill="#FA5652"/>
<path d="M1089.87 613.801C1041.1 613.801 1001.56 653.339 1001.56 702.111C1001.56 750.886 1041.1 790.424 1089.87 790.424V834.035" stroke="#FFD6D7" stroke-width="2.4" stroke-miterlimit="10"/>
<path d="M1097.13 836.239C1097.13 832.227 1093.88 828.976 1089.86 828.976C1085.85 828.976 1082.6 832.227 1082.6 836.239C1082.6 840.248 1085.85 843.501 1089.86 843.501C1093.88 843.501 1097.13 840.248 1097.13 836.239Z" fill="#F2AEB0"/>
<path d="M725.738 754.401H816.846C824.124 754.401 831.009 751.098 835.565 745.421L861.096 713.605C865.651 707.929 872.536 704.626 879.814 704.626H973.995" stroke="#FFA6A6" stroke-width="5" stroke-linejoin="round"/>
<path d="M979.943 703.913C979.943 708.949 975.861 713.031 970.825 713.031C965.789 713.031 961.706 708.949 961.706 703.913C961.706 698.876 965.789 694.794 970.825 694.794C975.861 694.794 979.943 698.876 979.943 703.913Z" fill="#FF383D"/>
<path opacity="0.15" d="M1160 214.366C1160 175.356 1128.38 143.732 1089.37 143.732C1050.36 143.732 1018.74 175.356 1018.74 214.366C1018.74 253.376 1050.36 285 1089.37 285C1128.38 285 1160 253.376 1160 214.366Z" fill="#FF383D"/>
<path d="M1028.13 225V208.607H1030.21V215.697H1037.77V208.607H1039.86V225H1037.77V217.438H1030.21V225H1028.13ZM1044.09 225V208.607H1054.51V210.391H1046.17V215.654H1053.69V217.395H1046.17V223.217H1054.7V225H1044.09ZM1060.01 218.834H1065.75L1064.01 213.742C1063.92 213.484 1063.75 212.976 1063.49 212.217C1063.25 211.458 1063.07 210.906 1062.95 210.562H1062.82C1062.72 210.878 1062.54 211.408 1062.29 212.152C1062.04 212.897 1061.87 213.427 1061.77 213.742L1060.01 218.834ZM1055.61 225L1061.66 208.607H1064.11L1070.15 225H1067.89L1066.35 220.51H1059.43L1057.86 225H1055.61ZM1072.19 225V208.607H1076.77C1079.16 208.607 1081.03 209.309 1082.38 210.713C1083.74 212.117 1084.42 214.15 1084.42 216.814C1084.42 219.307 1083.77 221.298 1082.48 222.787C1081.19 224.262 1079.27 225 1076.72 225H1072.19ZM1074.28 223.238H1076.45C1078.26 223.238 1079.69 222.73 1080.72 221.713C1081.75 220.682 1082.27 219.049 1082.27 216.814C1082.27 212.532 1080.34 210.391 1076.49 210.391H1074.28V223.238ZM1089.62 218.834H1095.35L1093.61 213.742C1093.53 213.484 1093.35 212.976 1093.1 212.217C1092.85 211.458 1092.67 210.906 1092.56 210.562H1092.43C1092.33 210.878 1092.15 211.408 1091.89 212.152C1091.65 212.897 1091.48 213.427 1091.38 213.742L1089.62 218.834ZM1085.21 225L1091.27 208.607H1093.72L1099.76 225H1097.5L1095.95 220.51H1089.04L1087.47 225H1085.21ZM1100.72 216.814C1100.72 214.165 1101.37 212.074 1102.68 210.541C1104 208.994 1105.71 208.221 1107.81 208.221C1109.13 208.221 1110.25 208.586 1111.19 209.316C1112.12 210.033 1112.81 210.906 1113.27 211.938L1111.49 212.539C1110.53 210.849 1109.29 210.004 1107.77 210.004C1106.27 210.004 1105.07 210.627 1104.18 211.873C1103.31 213.105 1102.87 214.752 1102.87 216.814C1102.87 218.906 1103.32 220.56 1104.2 221.777C1105.11 222.98 1106.29 223.582 1107.77 223.582C1108.71 223.582 1109.54 223.317 1110.24 222.787C1110.96 222.243 1111.49 221.577 1111.83 220.789L1113.7 221.391C1113.48 221.878 1113.21 222.336 1112.88 222.766C1112.57 223.195 1112.17 223.618 1111.7 224.033C1111.23 224.449 1110.66 224.778 1109.98 225.021C1109.32 225.265 1108.6 225.387 1107.81 225.387C1105.74 225.387 1104.03 224.628 1102.7 223.109C1101.38 221.591 1100.72 219.493 1100.72 216.814ZM1116.38 225V208.607H1118.47V215.697H1126.03V208.607H1128.12V225H1126.03V217.438H1118.47V225H1116.38ZM1132.35 225V208.607H1142.77V210.391H1134.43V215.654H1141.95V217.395H1134.43V223.217H1142.96V225H1132.35Z" fill="#FF383D"/>
<path d="M1089.87 127.65C1041.1 127.65 1001.56 167.187 1001.56 215.96C1001.56 264.732 1041.1 304.272 1089.87 304.272V347.883" stroke="#FFD6D7" stroke-width="2.4" stroke-miterlimit="10"/>
<path d="M1097.13 350.087C1097.13 346.075 1093.88 342.825 1089.87 342.825C1085.86 342.825 1082.61 346.075 1082.61 350.087C1082.61 354.099 1085.86 357.349 1089.87 357.349C1093.88 357.349 1097.13 354.099 1097.13 350.087Z" fill="#F2AEB0"/>
<path d="M975.839 222.859H849.559C843.442 222.859 837.555 225.195 833.102 229.39L804.567 256.271C800.114 260.466 794.228 262.802 788.11 262.802H674.12" stroke="#FFB2B1" stroke-width="5" stroke-linejoin="round"/>
<path d="M979.941 222.146C979.941 227.182 975.859 231.264 970.822 231.264C965.786 231.264 961.704 227.182 961.704 222.146C961.704 217.11 965.786 213.027 970.822 213.027C975.859 213.027 979.941 217.11 979.941 222.146Z" fill="#FF383D"/>
<defs>
<filter id="filter0_d" x="26.9343" y="722.746" width="103.809" height="15.6055" filterUnits="userSpaceOnUse" color-interpolation-filters="sRGB">
<feFlood flood-opacity="0" result="BackgroundImageFix"/>
<feColorMatrix in="SourceAlpha" type="matrix" values="0 0 0 0 0 0 0 0 0 0 0 0 0 0 0 0 0 0 127 0"/>
<feOffset/>
<feColorMatrix type="matrix" values="0 0 0 0 0 0 0 0 0 0 0 0 0 0 0 0 0 0 0.1 0"/>
<feBlend mode="normal" in2="BackgroundImageFix" result="effect1_dropShadow"/>
<feBlend mode="normal" in="SourceGraphic" in2="effect1_dropShadow" result="shape"/>
</filter>
<linearGradient id="paint0_linear" x1="279.615" y1="651.802" x2="343.866" y2="780.175" gradientUnits="userSpaceOnUse">
<stop stop-color="#FFC8C8"/>
<stop offset="1" stop-color="#FFF2F5"/>
</linearGradient>
<linearGradient id="paint1_linear" x1="911.18" y1="248.499" x2="389.511" y2="38.2372" gradientUnits="userSpaceOnUse">
<stop stop-color="white"/>
<stop offset="1" stop-color="#FFD5D5"/>
</linearGradient>
<linearGradient id="paint2_linear" x1="843.946" y1="153.536" x2="682.873" y2="126.967" gradientUnits="userSpaceOnUse">
<stop stop-color="#FFD3D3"/>
<stop offset="1" stop-color="#FFF6F6"/>
</linearGradient>
<linearGradient id="paint3_linear" x1="205.431" y1="428.025" x2="962.765" y2="428.025" gradientUnits="userSpaceOnUse">
<stop stop-color="#FFF8F5"/>
<stop offset="1" stop-color="#FFDEDE"/>
</linearGradient>
<linearGradient id="paint4_linear" x1="893.009" y1="609.534" x2="694.623" y2="627.818" gradientUnits="userSpaceOnUse">
<stop stop-color="#FFC2C2"/>
<stop offset="1" stop-color="white"/>
</linearGradient>
</defs>
</svg>
