<svg width="1171" height="873" viewBox="0 0 1171 873" fill="none" xmlns="http://www.w3.org/2000/svg">
<path d="M541.104 722.83C505.933 743.162 469.065 756.385 427.087 756.212C380.298 756.015 333.915 724.62 304.603 690.164C293.712 677.367 284.188 662.576 281.98 645.921C276.894 607.443 312.105 596.498 343.809 596.986C361.679 597.253 378.962 602.205 396.052 607.115C424.425 615.276 456.066 616.004 482.685 629.677C491.62 634.282 498.837 640.469 508.731 643.189C524.123 647.425 540.84 647.671 556.499 651.22C569.875 654.277 585.35 660.518 587.872 673.998C590.443 687.826 577.653 699.318 565.999 707.177C557.754 712.766 549.485 718.002 541.104 722.83Z" fill="url(#paint0_linear)"/>
<path d="M292.8 267.685C333.798 157.432 457.155 86.9824 573.386 96.193C629.435 100.643 681.635 125.71 730.793 152.964C774.122 176.983 817.026 203.828 851.439 239.921C874.934 264.556 895.142 296.034 911.325 326.078C935.538 371.069 939.394 435.735 876.184 446.409C861.354 448.915 847.466 446.763 832.717 445.517C820.784 444.5 810.529 449.375 798.64 450.363C768.718 452.856 738.371 449.047 709.089 443.053C649.407 430.811 592.113 408.354 531.679 399.62C482.158 392.486 431.73 394.892 383.114 406.707C362.604 411.695 341.399 418.409 320.815 413.734C270.076 402.189 275.467 336.23 283.946 297.792C286.181 287.559 289.14 277.498 292.8 267.685Z" fill="url(#paint1_linear)"/>
<path d="M792.509 161.678C804.569 168.201 849.33 183.109 843.062 154.285C841.491 147.106 836.558 140.971 830.873 136.824C824.365 132.06 817.882 130.313 812.235 124.29C805.354 117.032 797.931 110.445 790.063 104.613C773.912 92.4207 755.963 81.8962 736.832 79.9338C723.415 78.5628 702.791 84.785 700.803 102.037C697.901 127.153 735.452 122.428 748.644 128.092C761.158 133.445 770.486 145.626 781.515 154.421C784.998 157.193 788.679 159.622 792.509 161.678Z" fill="url(#paint2_linear)"/>
<path d="M588.693 174.827C614.29 182.519 635.899 198.123 660.184 209.005C700.615 227.119 748.483 221.127 791.926 229.97C836.226 238.999 873.347 260.8 897.191 299.486C927.983 349.417 945.44 413.489 944.213 472.875C942.855 538.245 914.357 588.427 864.751 629.388C815.174 670.324 755.988 698.257 694.502 716.088C688.57 717.814 682.619 719.418 676.619 720.928C541.845 754.768 350.563 751.26 269.103 617.527C268.357 616.305 267.629 615.08 266.895 613.835C258.204 598.842 251.339 582.862 246.447 566.236C228.958 507.333 223.276 438.982 230.489 377.98C235.331 336.915 260.321 304.897 286.665 274.419C323.678 231.601 373.853 202.876 427.337 185.727C466.943 173.03 512.012 160.896 553.895 166.977C565.674 168.721 577.306 171.344 588.693 174.827Z" fill="url(#paint3_linear)"/>
<path d="M902.258 591.85C878.601 624.875 850.466 652.125 812.152 669.277C769.445 688.391 714.243 678.915 673.331 659.612C658.132 652.444 643.356 642.897 634.477 628.634C613.977 595.677 641.541 571.187 670.626 558.558C687.016 551.432 704.803 548.817 722.397 546.244C751.612 541.978 780.737 529.595 810.625 531.075C820.665 531.586 829.79 534.246 839.926 532.644C855.695 530.157 871.026 523.487 886.756 520.263C900.202 517.533 916.873 516.837 924.73 528.078C932.774 539.615 925.86 555.359 918.484 567.324C913.278 575.815 907.903 583.995 902.258 591.85Z" fill="url(#paint4_linear)"/>
<path d="M506.432 412.302C506.091 412.302 505.748 412.194 505.455 411.968C505.188 411.758 498.859 406.759 494.026 396.562C489.594 387.211 485.658 371.534 492.066 349.921C496.412 335.259 500.768 324.836 504.609 315.634C511.583 298.94 516.623 286.878 517.03 261.306C517.043 260.431 517.689 259.68 518.643 259.741C519.525 259.757 520.225 260.476 520.212 261.357C519.795 287.54 514.389 300.48 507.545 316.863C503.734 325.988 499.416 336.328 495.117 350.828C483.431 390.23 507.17 409.27 507.412 409.454C508.102 409.995 508.226 410.994 507.689 411.688C507.374 412.092 506.906 412.302 506.432 412.302Z" fill="#000C3E"/>
<path d="M636.799 161.035C636.561 178.369 622.316 192.232 604.979 191.994C587.645 191.755 573.785 177.51 574.021 160.173C574.259 142.839 588.507 128.979 605.841 129.215C623.175 129.454 637.038 143.701 636.799 161.035Z" fill="#000C3E"/>
<path d="M503.394 401.089C503.394 401.089 513.051 419.858 550.808 425.645C588.563 431.43 617.749 417.125 647.024 426.963C676.299 436.804 717.907 422.091 725.928 409.699C733.952 397.306 729.001 262.282 705.577 240.179C682.153 218.075 561.792 202.02 536.433 229.138C511.075 256.259 486.55 386.268 503.394 401.089Z" fill="#000C3E"/>
<path d="M717.938 289.38C717.155 346.508 670.209 392.185 613.078 391.402C555.95 390.62 510.273 343.67 511.055 286.542C511.841 229.414 558.788 183.737 615.916 184.52C673.044 185.306 718.721 232.252 717.938 289.38Z" fill="#000C3E"/>
<path d="M529.966 286.087C529.966 286.087 537.198 411.52 622.201 414.925C707.201 418.329 702.915 241.46 671.801 225.363C640.687 209.27 512.587 215.471 529.966 286.087Z" fill="#FFCEB0"/>
<path d="M617.744 310.891C617.744 310.891 634.871 349.145 630.761 351.805C626.65 354.462 614.432 354.296 611.075 351.534C607.719 348.773 611.012 306.726 617.744 310.891Z" fill="#F5A473"/>
<path d="M592.633 324.426C592.522 328.83 588.863 332.31 584.46 332.199C580.056 332.091 576.575 328.432 576.687 324.028C576.795 319.625 580.454 316.144 584.86 316.252C589.264 316.364 592.745 320.023 592.633 324.426Z" fill="#41294A"/>
<path d="M661.01 319.045C660.899 323.449 657.24 326.929 652.836 326.818C648.433 326.71 644.952 323.051 645.064 318.647C645.172 314.244 648.831 310.763 653.237 310.871C657.641 310.982 661.122 314.641 661.01 319.045Z" fill="#41294A"/>
<path d="M595.202 217.554C595.202 217.554 565.118 232.995 559.986 260.758C554.851 288.522 559.525 359.192 527.205 356.713C527.205 356.713 461.451 218.196 595.202 217.554Z" fill="#41294A"/>
<path d="M611.256 217.774C608.542 219.816 642.679 218.922 662.759 242.12C682.842 265.318 688.881 324.343 691.926 325.367C694.971 326.395 705.257 251.735 683.329 229.899C661.4 208.066 626.7 206.151 611.256 217.774Z" fill="#41294A"/>
<path d="M684.725 330.584C684.725 330.584 692.103 298.964 706.542 309.813C720.98 320.663 708.938 353.807 694.998 357.119C681.062 360.432 677.372 346.966 684.725 330.584Z" fill="#FFCEB0"/>
<path d="M550.746 328.746C550.746 328.746 544.236 296.935 529.505 307.384C514.777 317.833 525.906 351.299 539.747 354.993C553.591 358.683 557.647 345.326 550.746 328.746Z" fill="#FFCEB0"/>
<path d="M649.183 290.911C649.183 290.911 664.195 282.991 673.444 294.369C681.58 304.372 663.011 296.265 656.177 297.56C649.339 298.859 640.31 298.292 649.183 290.911Z" fill="#41294A"/>
<path d="M589.527 293.793C589.527 293.793 574.13 286.65 565.473 298.483C557.859 308.89 575.989 299.845 582.883 300.793C589.775 301.738 598.767 300.71 589.527 293.793Z" fill="#41294A"/>
<path d="M643.732 375.18C643.732 375.18 633.939 360.382 623.344 361.314C612.745 362.249 604.622 375.889 603.197 376.462C603.197 376.462 619.736 384.229 643.732 375.18Z" fill="#41294A"/>
<path d="M584.172 306.667C570.914 306.667 559.979 317.46 559.794 330.721C559.708 337.231 562.158 343.391 566.702 348.062C571.245 352.729 577.332 355.348 583.845 355.437L584.185 355.44C597.443 355.44 608.379 344.651 608.56 331.389C608.745 317.947 597.959 306.858 584.513 306.671L584.172 306.667ZM584.185 358.622L583.8 358.619C576.438 358.52 569.556 355.555 564.42 350.279C559.285 345.001 556.514 338.039 556.612 330.677C556.819 315.684 569.183 303.486 584.172 303.486L584.557 303.489C599.757 303.699 611.949 316.235 611.742 331.431C611.539 346.423 599.174 358.622 584.185 358.622Z" fill="#FFFCF6"/>
<path d="M653.038 301.156C639.777 301.156 628.841 311.948 628.66 325.209C628.475 338.649 639.264 349.741 652.707 349.925L653.048 349.928C666.309 349.928 677.245 339.139 677.426 325.878C677.515 319.365 675.062 313.205 670.522 308.534C665.978 303.87 659.891 301.248 653.378 301.159L653.038 301.156ZM653.048 353.11L652.666 353.107C637.463 352.897 625.271 340.361 625.478 325.165C625.685 310.173 638.046 297.974 653.038 297.974L653.423 297.977C660.786 298.076 667.668 301.041 672.8 306.316C677.938 311.595 680.71 318.556 680.608 325.919C680.401 340.911 668.037 353.11 653.048 353.11Z" fill="#FFFCF6"/>
<path d="M558.887 326.727C558.705 326.727 558.517 326.695 558.339 326.631L548.135 322.883C547.311 322.578 546.888 321.665 547.191 320.838C547.493 320.017 548.412 319.6 549.233 319.896L559.434 323.641C560.261 323.946 560.681 324.859 560.379 325.687C560.143 326.329 559.536 326.727 558.887 326.727Z" fill="#FFFCF6"/>
<path d="M677.873 319.496C677.196 319.496 676.566 319.061 676.356 318.38C676.092 317.543 676.559 316.649 677.399 316.385L691.345 312.032C692.178 311.765 693.076 312.239 693.337 313.076C693.601 313.916 693.133 314.807 692.293 315.071L678.347 319.426C678.192 319.474 678.029 319.496 677.873 319.496Z" fill="#FFFCF6"/>
<path d="M610.759 246.942C610.759 246.942 610.788 278.673 629.69 284.404C648.59 290.137 697.21 287.608 696.717 279.854C692.265 209.846 659.357 213.368 631.873 204.408C583.673 188.7 544.251 267.4 550.153 286.001C556.055 304.598 596.737 287.232 605.445 284.617C614.151 281.998 609.327 260.436 610.759 246.942Z" fill="#000C3E"/>
<g opacity="0.210007">
<g opacity="0.210007">
<path opacity="0.210007" d="M562.015 354.112C562.015 354.112 604.895 329.37 623.715 332.829C642.535 336.291 675.565 336.832 677.06 343.583C678.559 350.332 635.185 347.29 621.844 348.588C608.503 349.886 557.287 365.244 562.015 354.112Z" fill="#DB5C5D"/>
</g>
</g>
<path d="M586.013 337.556C585.386 337.556 584.791 337.183 584.539 336.563C584.209 335.752 584.6 334.823 585.414 334.492C589.726 332.735 590.524 331.351 590.531 331.339C590.814 330.505 591.686 330.117 592.526 330.413C593.356 330.696 593.773 331.663 593.49 332.497C593.289 333.082 592.204 335.163 586.611 337.438C586.413 337.518 586.213 337.556 586.013 337.556Z" fill="#DB5C5D"/>
<path d="M651.524 334.188C650.242 334.188 648.078 333.8 644.68 332.142C643.888 331.76 643.56 330.809 643.945 330.016C644.327 329.227 645.284 328.903 646.07 329.285C650.261 331.324 651.82 330.984 651.839 330.984C652.65 330.643 653.516 331.041 653.859 331.849C654.203 332.657 653.764 333.612 652.952 333.959C652.742 334.048 652.291 334.188 651.524 334.188Z" fill="#DB5C5D"/>
<path d="M610.128 331.541C609.323 331.541 608.629 330.933 608.546 330.112C608.457 329.237 609.094 328.454 609.969 328.368L627.042 326.625C627.898 326.517 628.696 327.169 628.785 328.044C628.875 328.919 628.238 329.702 627.363 329.788L610.29 331.531C610.236 331.537 610.182 331.541 610.128 331.541Z" fill="#FFFCF6"/>
<path d="M586.487 191.565C586.255 191.565 586.016 191.515 585.794 191.403C576.767 187.016 571.307 180.757 569.557 172.8C565.676 155.131 581.46 135.583 582.135 134.759C582.695 134.078 583.694 133.979 584.371 134.536C585.052 135.093 585.154 136.092 584.597 136.773C584.441 136.964 569.112 155.968 572.666 172.125C574.196 179.08 579.08 184.604 587.184 188.546C587.973 188.928 588.304 189.882 587.919 190.671C587.645 191.235 587.079 191.565 586.487 191.565Z" fill="#000C3E"/>
<path d="M622.817 196.294C622.375 196.294 621.936 196.109 621.621 195.753C621.041 195.091 621.105 194.089 621.767 193.507C621.951 193.344 640.196 177.121 639.343 160.598C638.977 153.487 635.067 147.235 627.72 142.014C627.004 141.508 626.835 140.515 627.345 139.796C627.854 139.083 628.846 138.915 629.562 139.424C637.742 145.233 642.105 152.306 642.521 160.445C643.444 178.508 624.665 195.196 623.864 195.899C623.561 196.163 623.189 196.294 622.817 196.294Z" fill="#000C3E"/>
<path d="M717.447 405.181C716.986 405.181 716.528 404.983 716.213 404.592C715.659 403.914 715.761 402.912 716.442 402.355C716.652 402.184 737.578 384.706 731.517 357.057C729.181 346.398 725.087 334.67 720.75 322.255C713.231 300.724 705.455 278.459 704.822 256.874C704.797 255.992 705.49 255.264 706.368 255.235C707.192 255.264 707.978 255.9 708.004 256.778C708.624 277.873 716.315 299.904 723.753 321.205C728.122 333.716 732.249 345.53 734.625 356.373C741.113 385.979 718.679 404.64 718.449 404.824C718.154 405.063 717.8 405.181 717.447 405.181Z" fill="#000C3E"/>
<path d="M723.098 291.551C723.047 291.551 722.993 291.548 722.939 291.545C722.067 291.459 721.428 290.679 721.513 289.804C724.262 261.967 718.405 239.374 704.109 222.641C681.09 195.708 643.691 193.236 643.319 193.213C642.441 193.162 641.77 192.412 641.824 191.53C641.871 190.655 642.626 189.962 643.501 190.038C643.892 190.06 682.639 192.618 706.527 220.573C721.408 237.99 727.517 261.388 724.679 290.116C724.6 290.94 723.906 291.551 723.098 291.551Z" fill="#000C3E"/>
<path d="M609.154 378.321C609.154 378.321 625.008 367.197 639.167 376.733C639.167 376.733 622.635 382.928 609.154 378.321Z" fill="#DB5C5D"/>
<path d="M619.644 389.741C618.079 389.741 616.733 389.725 615.903 389.712C615.025 389.699 614.325 388.977 614.337 388.096C614.35 387.217 614.951 386.505 615.954 386.53C621.961 386.61 629.139 386.463 630.256 386.04C631.073 385.728 631.996 386.136 632.311 386.953C632.626 387.774 632.225 388.687 631.407 389.006C629.816 389.623 623.911 389.741 619.644 389.741Z" fill="#DB5C5D"/>
<path d="M542.48 346.203C542.337 346.203 542.194 346.184 542.051 346.143C541.204 345.907 540.711 345.032 540.946 344.183C545.299 328.583 533.743 318.538 533.625 318.436C532.957 317.87 532.874 316.865 533.444 316.193C534.01 315.525 535.016 315.442 535.687 316.015C536.228 316.473 548.907 327.498 544.01 345.042C543.813 345.742 543.177 346.203 542.48 346.203Z" fill="#DB5C5D"/>
<path d="M690.92 350.003C690.885 350.003 690.853 350.003 690.815 350C689.94 349.943 689.275 349.185 689.329 348.31C690.519 329.847 699.367 319.977 699.746 319.567C700.338 318.917 701.343 318.873 701.989 319.465C702.638 320.057 702.683 321.062 702.094 321.711C702.008 321.806 693.618 331.234 692.508 348.514C692.45 349.357 691.75 350.003 690.92 350.003Z" fill="#DB5C5D"/>
<path d="M658.972 401.941C658.972 401.941 664.031 458.534 657.318 467.485C650.604 476.438 608.084 469.721 596.893 467.485C585.703 465.248 585.681 371.648 587.94 377.97C606.623 430.185 657.684 383.977 658.972 401.941Z" fill="#FFCEB0"/>
<path d="M591.986 407.539C591.986 407.539 622.152 422.038 656.445 404.487C656.445 404.487 659.111 425.57 656.445 430.431C653.782 435.293 599.46 438.767 588.766 414.806C588.766 414.806 588.9 406.498 591.986 407.539Z" fill="#F5A473"/>
<path d="M427.249 850.876H817.622C817.622 850.876 837.562 511.474 788.662 474.566C739.759 437.655 524.486 456.093 473.804 487.621C423.122 519.149 427.249 850.876 427.249 850.876Z" fill="#FB4C47"/>
<path d="M622.153 460.778C622.153 460.778 607.106 591.241 613.674 609.399C620.237 627.558 611.828 708.065 609.155 718.53C606.48 728.994 525.374 733.439 504.445 725.068C483.515 716.697 509.777 491.045 521.492 449.298C533.211 407.547 620.864 432.145 622.153 460.778Z" fill="#05BA6E"/>
<path d="M383.969 300.932C383.969 300.932 416.598 363.425 439.465 364.004C462.335 364.583 539.454 270.668 567.889 269.7C596.328 268.736 620.747 271.495 620.859 264.718C620.97 257.937 581.307 250.537 581.307 250.537C581.307 250.537 638.667 254.189 626.802 247.915C614.941 241.641 586.515 235.999 586.515 235.999C586.515 235.999 627.741 237.663 628.04 233.254C628.339 228.844 585.118 222.35 585.118 222.35C585.118 222.35 637.712 220.67 628.094 213.435C618.472 206.199 600.365 209.34 551.389 216.82C502.409 224.3 391.602 289.688 383.969 300.932Z" fill="#FFCEB0"/>
<path d="M441.214 297.938C441.214 297.938 493.41 329.03 470.683 364.265C446.483 401.784 447.838 390.638 443.654 405.818C439.467 420.998 508.441 450.563 511.578 463.557C514.715 476.548 482.201 636.332 451.745 629.774C425.235 624.069 277.915 540.466 256.743 456.92C240.332 392.15 374.102 233.722 441.214 297.938Z" fill="#FB4C47"/>
<path d="M577.845 662.398C577.845 662.398 520.011 789.801 541.274 806.862C562.538 823.919 579.672 812.805 598.476 823.878C617.283 834.95 635.323 829.414 650.43 819.78C665.537 810.142 626.22 683.391 609.958 671.323C593.697 659.252 580.776 655.777 577.845 662.398Z" fill="white"/>
<path d="M770.001 465.5C770.001 465.5 801.099 469.296 825.51 514C843.824 547.541 879.304 743.529 825.51 771.454C771.716 799.377 721.261 784.771 701.736 765.953C682.209 747.135 716.95 650.154 740.108 642.915C763.268 635.679 770.001 465.5 770.001 465.5Z" fill="#FB4C47"/>
<path d="M780.071 462.496C780.071 462.496 781.525 453.434 736.742 434.055C701.005 418.588 670.393 444.691 615.88 447.501C561.368 450.313 566.287 428.706 527.727 438.748C468.223 454.239 515.599 493.244 534.772 497.622C553.945 502 618.181 609.985 780.071 462.496Z" fill="#05BA6E"/>
<path d="M623.78 353.6C623.78 353.6 623.614 357.291 625.733 357.625C627.852 357.959 631.769 356.776 630.76 351.803C630.76 351.803 625.447 353.511 623.78 353.6Z" fill="white"/>
<path d="M844.514 659.318C844.365 659.318 844.212 659.309 844.059 659.287C842.589 659.077 841.501 657.893 841.345 656.483C838.695 653.419 820.899 647.002 809.028 642.719C785.509 634.234 774.962 630.037 772.693 625.446C770.768 621.554 771.63 615.942 772.722 608.837C774.449 597.593 776.603 583.593 769.463 570.109C757.134 546.822 758.308 512.281 758.366 510.824C758.436 509.067 759.953 507.661 761.665 507.766C763.421 507.833 764.79 509.312 764.726 511.065C764.71 511.409 763.565 545.371 775.089 567.131C783.212 582.479 780.784 598.27 779.012 609.801C778.162 615.321 777.364 620.536 778.398 622.627C780.326 625.601 798.898 632.302 811.186 636.734C838.879 646.725 848.495 650.744 847.658 656.588C847.432 658.176 846.07 659.318 844.514 659.318Z" fill="#B31B1F"/>
<path d="M761.5 633.159C761.223 633.159 760.943 633.124 760.66 633.047C750.148 630.18 733.816 627.196 733.654 627.164C731.923 626.852 730.777 625.195 731.092 623.467C731.407 621.736 733.059 620.572 734.793 620.906C735.47 621.027 751.554 623.967 762.334 626.906C764.03 627.371 765.029 629.118 764.567 630.814C764.182 632.23 762.9 633.159 761.5 633.159Z" fill="#B31B1F"/>
<path d="M818.653 790.54C818.603 790.54 818.555 790.54 818.507 790.536C759.613 787.867 700.936 762.779 697.763 738.916C696.768 731.417 696.048 727.665 695.603 725.81C694.413 725.219 693.691 723.952 693.904 722.568C694.308 719.947 696.083 719.017 697.493 719.017H697.528C700.732 719.052 701.795 720.93 704.073 738.079C706.535 756.603 759.957 781.513 818.793 784.179C820.55 784.259 821.908 785.745 821.829 787.501C821.752 789.21 820.343 790.54 818.653 790.54Z" fill="#B31B1F"/>
<path d="M713.077 734.226C712.845 734.226 712.609 734.2 712.371 734.149C710.659 733.761 709.584 732.056 709.972 730.341C710.109 729.727 724.025 668.383 737.032 624.256C737.529 622.569 739.31 621.602 740.984 622.105C742.67 622.601 743.634 624.37 743.135 626.056C730.185 669.987 716.316 731.133 716.179 731.747C715.842 733.224 714.531 734.226 713.077 734.226Z" fill="#B31B1F"/>
<path d="M437 600.994C436.845 600.994 436.682 600.982 436.523 600.959C434.786 600.699 433.59 599.076 433.851 597.342C434.178 595.146 442.034 543.3 452.814 519.039C463.294 495.463 468.659 471.558 468.713 471.32C469.088 469.605 470.784 468.532 472.509 468.902C474.224 469.283 475.305 470.986 474.924 472.701C474.704 473.7 469.365 497.467 458.63 521.626C448.2 545.098 440.22 597.755 440.141 598.284C439.905 599.865 438.547 600.994 437 600.994Z" fill="#B31B1F"/>
<path d="M388.497 419.977C380.028 419.977 370.536 419.462 360.088 418.132C358.344 417.909 357.11 416.318 357.332 414.575C357.552 412.831 359.184 411.619 360.889 411.819C392.707 415.873 415.31 412.141 426.961 409.598C421.158 407.743 413.028 405.936 404.915 406.378C386.658 407.237 359.944 390.928 358.815 390.228C357.32 389.305 356.858 387.345 357.781 385.85C358.704 384.354 360.667 383.887 362.159 384.816C362.42 384.975 388.351 400.817 404.587 400.021C420.054 399.207 438.371 406.095 440.035 409.051C440.63 410.104 440.582 411.472 439.905 412.475C439.275 413.4 437.97 413.957 436.825 413.887C436.322 413.945 434.833 414.301 433.385 414.645C426.427 416.312 411.091 419.974 388.497 419.977Z" fill="#B31B1F"/>
<path d="M466.708 351.594C465.525 351.594 464.389 350.932 463.842 349.799C463.762 349.637 455.817 333.499 442.289 327.104C426.93 319.84 409.561 294.523 408.829 293.451C407.84 291.997 408.215 290.015 409.666 289.028C411.123 288.042 413.099 288.421 414.086 289.865C414.257 290.113 431.213 314.823 445.012 321.348C460.603 328.727 469.212 346.287 469.572 347.028C470.335 348.613 469.671 350.509 468.089 351.273C467.644 351.492 467.173 351.594 466.708 351.594Z" fill="#B31B1F"/>
<path d="M614.497 536.501C614.379 536.501 614.259 536.488 614.141 536.46C613.285 536.265 612.747 535.41 612.944 534.557C613.021 534.22 620.609 501.047 622.83 484.196C626.289 457.925 614.523 448.761 614.405 448.672C613.702 448.144 613.555 447.151 614.077 446.448C614.599 445.742 615.585 445.592 616.292 446.111C616.842 446.515 629.709 456.318 625.983 484.61C623.746 501.613 616.123 534.932 616.047 535.263C615.878 536.005 615.223 536.501 614.497 536.501Z" fill="#08824F"/>
<path d="M520.663 488.657L517.503 488.291C517.503 488.291 519.972 466.811 521.261 456.251C522.562 445.599 525.601 438.325 525.731 438.02C526.072 437.205 527.007 436.836 527.815 437.17C528.623 437.514 529.002 438.449 528.662 439.257C528.63 439.327 525.661 446.454 524.42 456.639C523.132 467.19 520.663 488.654 520.663 488.657Z" fill="#08824F"/>
<path d="M611.008 841.386C592.863 841.386 582.885 840.787 569.076 839.96C551.312 838.894 526.988 837.437 470.143 836.553C468.387 836.527 466.984 835.083 467.012 833.323C467.041 831.567 468.587 830.103 470.242 830.189C527.227 831.074 551.634 832.54 569.455 833.609C583.155 834.427 593.05 835.022 611.008 835.022C633.487 835.022 653.653 832.559 673.157 830.18C690.278 828.086 706.447 826.113 723.778 825.728C760.747 824.914 788.374 825.725 788.647 825.728C790.404 825.786 791.785 827.252 791.731 829.005C791.676 830.762 790.194 832.063 788.457 832.092C788.183 832.082 760.712 831.268 723.921 832.092C706.906 832.467 690.886 834.424 673.927 836.495C654.235 838.901 633.875 841.386 611.008 841.386Z" fill="#B31B1F"/>
<path d="M755.143 798.932C753.562 798.932 751.978 798.223 750.597 796.136C746.298 789.642 745 789.107 736.689 790.386C729.171 791.56 726.202 786.231 724.236 782.709C723.581 781.531 722.957 780.421 722.413 779.991C720.949 778.837 717.293 780.224 715.747 781.076L714.204 778.296C714.879 777.92 720.873 774.723 724.386 777.494C725.426 778.318 726.161 779.635 727.014 781.156C728.913 784.551 730.879 788.048 736.202 787.243C745.716 785.773 748.258 786.845 753.25 794.379C754.574 796.384 755.719 796.11 759.248 794.052C761.927 792.48 765.99 790.109 769.019 794.341L766.435 796.193C765.255 794.554 764.186 794.85 760.851 796.797C759.257 797.73 757.202 798.932 755.143 798.932Z" fill="white"/>
<path d="M718.124 649.085C718.124 649.085 642.125 621.604 609.153 635.661C576.181 649.715 549.009 685.948 554.042 688.344C559.076 690.743 586.012 669.852 586.012 669.852C586.012 669.852 558.544 697.609 563.638 700.387C568.732 703.164 595.201 688.344 595.201 688.344C595.201 688.344 576.725 708.096 584.66 709.607C592.595 711.119 609.608 694.844 627.349 694.233C645.094 693.619 667.455 707.641 689.638 711.59C711.818 715.535 718.124 649.085 718.124 649.085Z" fill="#FFCEB0"/>
<path d="M832.818 634.84C832.621 634.84 832.423 634.821 832.223 634.783C832 634.744 809.62 630.513 782.865 625.072C781.143 624.722 780.03 623.042 780.38 621.321C780.727 619.599 782.403 618.486 784.131 618.839C810.842 624.267 833.184 628.489 833.407 628.534C835.134 628.858 836.267 630.522 835.939 632.25C835.653 633.777 834.317 634.84 832.818 634.84Z" fill="#B31B1F"/>
<path fill-rule="evenodd" clip-rule="evenodd" d="M620.41 134.769C619.579 134.769 618.676 134.866 617.697 135.059C615.312 135.538 613.767 136.697 612.839 138.708C608.702 147.662 617.424 168.986 623.656 181.585C627.507 167.609 632.122 144.248 625.601 136.886C624.345 135.471 622.636 134.769 620.41 134.769ZM623.839 192.049C623.939 192.068 624.04 192.082 624.142 192.09C624.474 192.218 624.828 192.284 625.186 192.284C625.517 192.284 625.849 192.229 626.172 192.111C630.422 190.562 667.844 176.527 672.505 160.355C673.626 156.467 672.837 152.632 670.225 149.273C665.782 143.553 660.982 142.873 657.735 143.305C648.524 144.534 639.457 156.434 632.808 167.74C635.16 154.863 636.066 139.992 629.922 133.056C627.755 130.608 623.673 127.983 616.568 129.398C612.398 130.23 609.294 132.615 607.598 136.29C601.32 149.887 615.762 179.169 620.575 188.244C614.506 189.415 608.402 189.679 602.563 189.283C589.984 188.428 578.834 184.516 572.177 180.237L569.798 183.938C577.164 188.673 589.052 192.775 602.265 193.673C609.194 194.143 616.543 193.737 623.839 192.049ZM659.327 148.971C659.054 148.971 658.777 148.987 658.5 149.029C648.744 150.327 636.957 171.018 630.725 184.107C643.68 178.652 664.228 168.233 666.957 158.759C667.571 156.626 667.159 154.741 665.668 152.817C663.661 150.235 661.582 148.971 659.327 148.971Z" fill="#FFD310"/>
<path d="M197.27 243.75H310.515C317.784 243.75 324.662 247.045 329.218 252.71L362.458 294.048C367.173 299.91 374.363 303.223 381.883 302.997L594.85 296.596" stroke="#FFB2B1" stroke-width="5" stroke-linejoin="round"/>
<path d="M209.361 244.265C209.361 249.301 205.279 253.384 200.243 253.384C195.207 253.384 191.124 249.301 191.124 244.265C191.124 239.229 195.207 235.147 200.243 235.147C205.279 235.147 209.361 239.229 209.361 244.265Z" fill="#FF383D"/>
<path d="M11.0007 244.366C11.0007 205.356 42.625 173.732 81.6348 173.732C120.645 173.732 152.266 205.356 152.266 244.366C152.266 283.376 120.645 315 81.6348 315C42.625 315 11.0007 283.376 11.0007 244.366Z" fill="#FFE1E2"/>
<path d="M81.3303 156.49C130.103 156.49 169.64 196.028 169.64 244.8C169.64 293.573 130.103 333.113 81.3303 333.113V376.724" stroke="#FFD6D7" stroke-width="2.4" stroke-miterlimit="10"/>
<path d="M74.0679 378.928C74.0679 374.916 77.3185 371.665 81.3301 371.665C85.3418 371.665 88.5924 374.916 88.5924 378.928C88.5924 382.939 85.3418 386.19 81.3301 386.19C77.3185 386.19 74.0679 382.939 74.0679 378.928Z" fill="#F2AEB0"/>
<path d="M51.1277 254V237.607H61.2468V239.391H53.2117V244.869H60.4089V246.631H53.2117V254H51.1277ZM63.6531 254V237.607H74.073V239.391H65.7371V244.654H73.2566V246.395H65.7371V252.217H74.2664V254H63.6531ZM75.0183 237.607H77.2957L80.5828 248.264C80.6973 248.679 80.8692 249.273 81.0984 250.047C81.3419 250.82 81.5209 251.429 81.6355 251.873L81.7214 251.895C81.8503 251.451 82.0222 250.849 82.2371 250.09C82.4519 249.316 82.6238 248.708 82.7527 248.264L86.0613 237.607H88.3601L82.9246 254H80.4539L75.0183 237.607ZM90.4226 254V237.607H100.843V239.391H92.5066V244.654H100.026V246.395H92.5066V252.217H101.036V254H90.4226ZM53.2117 273.32H57.2937C58.3393 273.32 59.1414 273.055 59.7 272.525C60.2585 271.981 60.5378 271.244 60.5378 270.313C60.5378 269.439 60.2442 268.737 59.657 268.207C59.0697 267.663 58.239 267.391 57.1648 267.391H53.2117V273.32ZM51.1277 282V265.607H57.5945C59.2273 265.607 60.4806 266.044 61.3542 266.918C62.2423 267.792 62.6863 268.873 62.6863 270.162C62.6863 271.308 62.407 272.239 61.8484 272.955C61.3041 273.671 60.6882 274.13 60.0007 274.33C60.5736 274.66 60.989 275.046 61.2468 275.49C61.5046 275.934 61.7195 276.572 61.8914 277.402C62.0489 278.076 62.1707 278.598 62.2566 278.971C62.3569 279.329 62.5144 279.787 62.7292 280.346C62.9584 280.89 63.2377 281.441 63.5671 282H61.2253C60.6381 280.954 60.1296 279.472 59.7 277.553C59.5138 276.765 59.2416 276.163 58.8835 275.748C58.5398 275.318 57.9812 275.104 57.2078 275.104H53.2117V282H51.1277Z" fill="#FF383D"/>
<path d="M650.77 358.046H819.584C828.398 358.046 836.503 362.877 840.695 370.63L871.944 428.419C876.136 436.172 884.241 441.004 893.055 441.004H975.84" stroke="#FFB2B1" stroke-width="5" stroke-linejoin="round"/>
<path d="M979.944 440.905C979.944 445.941 975.862 450.023 970.826 450.023C965.79 450.023 961.708 445.941 961.708 440.905C961.708 435.868 965.79 431.786 970.826 431.786C975.862 431.786 979.944 435.868 979.944 440.905Z" fill="#FF383D"/>
<path opacity="0.15" d="M1005.73 459.366C1005.73 420.356 1037.36 388.732 1076.37 388.732C1115.38 388.732 1147 420.356 1147 459.366C1147 498.376 1115.38 530 1076.37 530C1037.36 530 1005.73 498.376 1005.73 459.366Z" fill="#FF383D"/>
<path d="M1049.06 443.32H1053.14C1054.19 443.32 1054.99 443.055 1055.55 442.525C1056.1 441.981 1056.38 441.244 1056.38 440.313C1056.38 439.439 1056.09 438.737 1055.5 438.207C1054.92 437.663 1054.09 437.391 1053.01 437.391H1049.06V443.32ZM1046.97 452V435.607H1053.44C1055.07 435.607 1056.33 436.044 1057.2 436.918C1058.09 437.792 1058.53 438.873 1058.53 440.162C1058.53 441.308 1058.25 442.239 1057.69 442.955C1057.15 443.671 1056.53 444.13 1055.85 444.33C1056.42 444.66 1056.84 445.046 1057.09 445.49C1057.35 445.934 1057.57 446.572 1057.74 447.402C1057.89 448.076 1058.02 448.598 1058.1 448.971C1058.2 449.329 1058.36 449.787 1058.58 450.346C1058.8 450.89 1059.08 451.441 1059.41 452H1057.07C1056.48 450.954 1055.98 449.472 1055.55 447.553C1055.36 446.765 1055.09 446.163 1054.73 445.748C1054.39 445.318 1053.83 445.104 1053.05 445.104H1049.06V452H1046.97ZM1061.73 446.006V435.607H1063.84V445.963C1063.84 447.524 1064.18 448.684 1064.87 449.443C1065.57 450.203 1066.49 450.582 1067.62 450.582C1068.78 450.582 1069.7 450.188 1070.39 449.4C1071.08 448.613 1071.42 447.467 1071.42 445.963V435.607H1073.53V446.006C1073.53 448.025 1073.02 449.594 1072 450.711C1071 451.828 1069.54 452.387 1067.62 452.387C1065.76 452.387 1064.31 451.843 1063.28 450.754C1062.25 449.651 1061.73 448.068 1061.73 446.006ZM1077.7 452V435.607H1080L1085.67 445.576L1087.58 448.971H1087.71C1087.52 447.639 1087.43 446.085 1087.43 444.309V435.607H1089.51V452H1087.21L1081.54 442.053L1079.63 438.658H1079.54C1079.7 440.148 1079.78 441.702 1079.78 443.32V452H1077.7ZM1093.77 452V435.607H1096.07L1101.74 445.576L1103.65 448.971H1103.78C1103.59 447.639 1103.5 446.085 1103.5 444.309V435.607H1105.58V452H1103.28L1097.61 442.053L1095.7 438.658H1095.61C1095.77 440.148 1095.85 441.702 1095.85 443.32V452H1093.77ZM1069.48 442.607H1071.93L1074.66 447.549C1075.24 448.637 1075.77 449.626 1076.25 450.514H1076.31C1076.5 450.17 1076.77 449.662 1077.13 448.988C1077.5 448.301 1077.76 447.821 1077.92 447.549L1080.63 442.607H1083.08L1077.34 452.297V459H1075.26V452.297L1069.48 442.607ZM1048.9 488V471.607H1051.2L1056.87 481.576L1058.78 484.971H1058.91C1058.72 483.639 1058.63 482.085 1058.63 480.309V471.607H1060.71V488H1058.41L1052.74 478.053L1050.83 474.658H1050.74C1050.9 476.148 1050.98 477.702 1050.98 479.32V488H1048.9ZM1063.89 479.815C1063.89 477.236 1064.52 475.16 1065.76 473.584C1067.02 472.009 1068.7 471.221 1070.79 471.221C1072.89 471.221 1074.56 472.009 1075.79 473.584C1077.04 475.16 1077.66 477.244 1077.66 479.836C1077.66 482.443 1077.03 484.52 1075.77 486.066C1074.53 487.613 1072.87 488.387 1070.79 488.387C1068.7 488.387 1067.02 487.613 1065.76 486.066C1064.52 484.505 1063.89 482.421 1063.89 479.815ZM1066.04 479.815C1066.04 481.891 1066.46 483.538 1067.31 484.756C1068.17 485.973 1069.33 486.582 1070.79 486.582C1072.24 486.582 1073.38 485.988 1074.23 484.799C1075.09 483.596 1075.52 481.941 1075.52 479.836C1075.52 477.759 1075.1 476.105 1074.27 474.873C1073.44 473.627 1072.28 473.004 1070.79 473.004C1069.33 473.004 1068.17 473.62 1067.31 474.852C1066.46 476.083 1066.04 477.738 1066.04 479.815ZM1079.47 484.777L1081.36 484.111C1081.79 484.871 1082.38 485.472 1083.12 485.916C1083.88 486.36 1084.75 486.582 1085.74 486.582C1086.8 486.582 1087.66 486.324 1088.32 485.809C1088.98 485.293 1089.31 484.598 1089.31 483.725C1089.31 483.266 1089.21 482.865 1089.01 482.522C1088.82 482.163 1088.52 481.856 1088.11 481.598C1087.69 481.34 1087.3 481.132 1086.92 480.975C1086.57 480.817 1086.08 480.638 1085.46 480.438C1083.76 479.879 1082.59 479.399 1081.96 478.998C1080.67 478.167 1080.03 477.029 1080.03 475.582C1080.03 474.264 1080.54 473.212 1081.55 472.424C1082.58 471.622 1083.94 471.221 1085.61 471.221C1086.93 471.221 1088.07 471.529 1089.03 472.145C1089.99 472.746 1090.68 473.512 1091.11 474.443L1089.33 475.045C1088.46 473.684 1087.2 473.004 1085.57 473.004C1084.52 473.004 1083.69 473.24 1083.08 473.713C1082.48 474.186 1082.18 474.809 1082.18 475.582C1082.18 476.026 1082.28 476.42 1082.5 476.764C1082.71 477.107 1083.04 477.408 1083.49 477.666C1083.93 477.91 1084.35 478.11 1084.75 478.268C1085.16 478.425 1085.68 478.611 1086.34 478.826C1086.53 478.884 1086.67 478.926 1086.75 478.955C1087.44 479.184 1088.02 479.413 1088.49 479.643C1088.98 479.857 1089.47 480.151 1089.95 480.523C1090.45 480.882 1090.83 481.326 1091.07 481.856C1091.33 482.371 1091.46 482.973 1091.46 483.66C1091.46 485.15 1090.93 486.31 1089.87 487.141C1088.82 487.971 1087.43 488.387 1085.7 488.387C1084.21 488.387 1082.93 488.065 1081.85 487.42C1080.79 486.761 1080 485.88 1079.47 484.777ZM1094.4 488V471.607H1104.82V473.391H1096.48V478.654H1104V480.395H1096.48V486.217H1105.01V488H1094.4Z" fill="#FF383D"/>
<path d="M1081.03 371.265C1129.8 371.265 1169.34 410.803 1169.34 459.578C1169.34 508.35 1129.8 547.888 1081.03 547.888V591.502" stroke="#FFD6D7" stroke-width="2.4" stroke-miterlimit="10"/>
<path d="M1073.77 593.704C1073.77 589.692 1077.02 586.442 1081.03 586.442C1085.04 586.442 1088.29 589.692 1088.29 593.704C1088.29 597.716 1085.04 600.966 1081.03 600.966C1077.02 600.966 1073.77 597.716 1073.77 593.704Z" fill="#F2AEB0"/>
<path opacity="0.15" d="M11.0007 730.366C11.0007 691.356 42.625 659.732 81.6348 659.732C120.645 659.732 152.266 691.356 152.266 730.366C152.266 769.376 120.645 801 81.6348 801C42.625 801 11.0007 769.376 11.0007 730.366Z" fill="#FF383D"/>
<g filter="url(#filter0_d)">
<path d="M27.1277 741V724.607H31.7039C34.0958 724.607 35.9649 725.309 37.3113 726.713C38.672 728.117 39.3523 730.15 39.3523 732.815C39.3523 735.307 38.7078 737.298 37.4187 738.787C36.1296 740.262 34.2104 741 31.6609 741H27.1277ZM29.2117 739.238H31.3816C33.2006 739.238 34.6257 738.73 35.657 737.713C36.6882 736.682 37.2039 735.049 37.2039 732.815C37.2039 728.532 35.2774 726.391 31.4246 726.391H29.2117V739.238ZM39.6316 724.607H42.0808L44.8093 729.549C45.3966 730.637 45.9265 731.626 46.3992 732.514H46.4636C46.6498 732.17 46.922 731.662 47.28 730.988C47.6524 730.301 47.9174 729.821 48.075 729.549L50.782 724.607H53.2312L47.4949 734.297V741H45.4109V734.297L39.6316 724.607ZM55.2937 741V724.607H61.5457C63.1785 724.607 64.4604 725.051 65.3914 725.94C66.3367 726.828 66.8093 728.009 66.8093 729.484C66.8093 730.988 66.3295 732.177 65.3699 733.051C64.4102 733.925 63.1427 734.361 61.5671 734.361H57.3777V741H55.2937ZM57.3777 732.6H61.2664C62.3406 732.6 63.1713 732.342 63.7585 731.826C64.3601 731.296 64.6609 730.516 64.6609 729.484C64.6609 728.482 64.3673 727.716 63.78 727.186C63.1928 726.656 62.3406 726.391 61.2234 726.391H57.3777V732.6ZM68.3992 737.777L70.2898 737.111C70.7195 737.871 71.3067 738.472 72.0515 738.916C72.8106 739.36 73.6843 739.582 74.6726 739.582C75.7325 739.582 76.5919 739.324 77.2507 738.809C77.9096 738.293 78.239 737.598 78.239 736.725C78.239 736.266 78.1388 735.865 77.9382 735.522C77.752 735.163 77.4513 734.856 77.0359 734.598C76.6205 734.34 76.2266 734.132 75.8542 733.975C75.4962 733.817 75.0092 733.638 74.3933 733.438C72.6889 732.879 71.5216 732.399 70.8914 731.998C69.6023 731.167 68.9578 730.029 68.9578 728.582C68.9578 727.264 69.4662 726.212 70.4832 725.424C71.5144 724.622 72.8679 724.221 74.5437 724.221C75.8614 724.221 77.0001 724.529 77.9597 725.145C78.9194 725.746 79.614 726.512 80.0437 727.443L78.2605 728.045C77.3868 726.684 76.1335 726.004 74.5007 726.004C73.4552 726.004 72.6244 726.24 72.0085 726.713C71.407 727.186 71.1062 727.809 71.1062 728.582C71.1062 729.026 71.2136 729.42 71.4285 729.764C71.6433 730.107 71.9727 730.408 72.4167 730.666C72.8608 730.91 73.2833 731.11 73.6843 731.268C74.0854 731.425 74.6153 731.611 75.2742 731.826C75.4604 731.884 75.5964 731.926 75.6824 731.955C76.3699 732.184 76.95 732.413 77.4226 732.643C77.9096 732.857 78.3966 733.151 78.8835 733.523C79.3848 733.882 79.7572 734.326 80.0007 734.856C80.2585 735.371 80.3875 735.973 80.3875 736.66C80.3875 738.15 79.8575 739.31 78.7976 740.141C77.752 740.971 76.3627 741.387 74.6296 741.387C73.1401 741.387 71.8582 741.065 70.7839 740.42C69.724 739.761 68.9291 738.88 68.3992 737.777ZM83.3308 741V724.607H85.6296L91.3015 734.576L93.2136 737.971H93.3425C93.1563 736.639 93.0632 735.085 93.0632 733.309V724.607H95.1472V741H92.8484L87.1765 731.053L85.2644 727.658H85.1785C85.336 729.148 85.4148 730.702 85.4148 732.32V741H83.3308ZM98.3269 732.815C98.3269 730.236 98.95 728.16 100.196 726.584C101.456 725.009 103.132 724.221 105.223 724.221C107.329 724.221 108.997 725.009 110.229 726.584C111.475 728.16 112.098 730.244 112.098 732.836C112.098 735.443 111.468 737.52 110.208 739.066C108.962 740.613 107.3 741.387 105.223 741.387C103.132 741.387 101.456 740.613 100.196 739.066C98.95 737.505 98.3269 735.421 98.3269 732.815ZM100.475 732.815C100.475 734.891 100.898 736.538 101.743 737.756C102.602 738.973 103.762 739.582 105.223 739.582C106.67 739.582 107.816 738.988 108.661 737.799C109.52 736.596 109.95 734.941 109.95 732.836C109.95 730.759 109.535 729.105 108.704 727.873C107.873 726.627 106.713 726.004 105.223 726.004C103.762 726.004 102.602 726.62 101.743 727.852C100.898 729.083 100.475 730.738 100.475 732.815ZM115.257 741V724.607H125.677V726.391H117.341V731.654H124.86V733.395H117.341V739.217H125.87V741H115.257ZM29.3191 762.834H35.0554L33.3152 757.742C33.2292 757.484 33.0574 756.976 32.7996 756.217C32.5561 755.458 32.377 754.906 32.2625 754.563H32.1335C32.0333 754.878 31.8542 755.408 31.5964 756.152C31.3529 756.897 31.1811 757.427 31.0808 757.742L29.3191 762.834ZM24.9148 769L30.9734 752.607H33.4226L39.4597 769H37.2039L35.657 764.51H28.739L27.1707 769H24.9148Z" fill="#FF383D"/>
</g>
<path d="M81.3325 642.642C130.105 642.642 169.643 682.18 169.643 730.952C169.643 779.727 130.105 819.265 81.3325 819.265V862.876" stroke="#FFD6D7" stroke-width="2.4" stroke-miterlimit="10"/>
<path d="M74.0701 865.08C74.0701 861.068 77.3207 857.818 81.3323 857.818C85.344 857.818 88.5946 861.068 88.5946 865.08C88.5946 869.089 85.344 872.342 81.3323 872.342C77.3207 872.342 74.0701 869.089 74.0701 865.08Z" fill="#F2AEB0"/>
<path d="M186.74 742.834H365.033C374.666 742.834 383.365 737.075 387.127 728.207L443.54 595.233C447.302 586.365 456.002 580.606 465.634 580.606H672.809" stroke="#FFB2B1" stroke-width="5" stroke-linejoin="round"/>
<path d="M201.987 743.241C201.987 748.277 197.904 752.359 192.868 752.359C187.832 752.359 183.75 748.277 183.75 743.241C183.75 738.205 187.832 734.122 192.868 734.122C197.904 734.122 201.987 738.205 201.987 743.241Z" fill="#FF383D"/>
<path opacity="0.15" d="M159.268 488.366C159.268 449.356 127.644 417.732 88.6338 417.732C49.624 417.732 17.9998 449.356 17.9998 488.366C17.9998 527.376 49.624 559 88.6338 559C127.644 559 159.268 527.376 159.268 488.366Z" fill="#FF383D"/>
<path d="M53.0571 469.391V467.607H64.938V469.391H60.0396V484H57.9556V469.391H53.0571ZM67.2583 484V467.607H69.3423V474.697H76.9048V467.607H78.9888V484H76.9048V476.438H69.3423V484H67.2583ZM85.3052 475.32H89.3872C90.4328 475.32 91.2349 475.055 91.7935 474.525C92.3521 473.981 92.6313 473.243 92.6313 472.312C92.6313 471.439 92.3377 470.737 91.7505 470.207C91.1632 469.663 90.3325 469.391 89.2583 469.391H85.3052V475.32ZM83.2212 484V467.607H89.688C91.3208 467.607 92.5741 468.044 93.4478 468.918C94.3358 469.792 94.7798 470.873 94.7798 472.162C94.7798 473.308 94.5005 474.239 93.9419 474.955C93.3976 475.671 92.7817 476.13 92.0942 476.33C92.6672 476.66 93.0825 477.046 93.3403 477.49C93.5981 477.934 93.813 478.572 93.9849 479.402C94.1424 480.076 94.2642 480.598 94.3501 480.971C94.4504 481.329 94.6079 481.787 94.8228 482.346C95.0519 482.89 95.3312 483.441 95.6606 484H93.3188C92.7316 482.954 92.2231 481.472 91.7935 479.553C91.6073 478.765 91.3351 478.163 90.9771 477.748C90.6333 477.318 90.0747 477.104 89.3013 477.104H85.3052V484H83.2212ZM96.9712 475.814C96.9712 473.236 97.5942 471.16 98.8403 469.584C100.101 468.008 101.777 467.221 103.868 467.221C105.973 467.221 107.642 468.008 108.874 469.584C110.12 471.16 110.743 473.243 110.743 475.836C110.743 478.443 110.112 480.52 108.852 482.066C107.606 483.613 105.944 484.387 103.868 484.387C101.777 484.387 100.101 483.613 98.8403 482.066C97.5942 480.505 96.9712 478.421 96.9712 475.814ZM99.1196 475.814C99.1196 477.891 99.5422 479.538 100.387 480.756C101.247 481.973 102.407 482.582 103.868 482.582C105.314 482.582 106.46 481.988 107.305 480.799C108.165 479.596 108.594 477.941 108.594 475.836C108.594 473.759 108.179 472.105 107.348 470.873C106.517 469.627 105.357 469.004 103.868 469.004C102.407 469.004 101.247 469.62 100.387 470.852C99.5422 472.083 99.1196 473.738 99.1196 475.814ZM115.877 477.834H121.614L119.874 472.742C119.788 472.484 119.616 471.976 119.358 471.217C119.114 470.458 118.935 469.906 118.821 469.562H118.692C118.592 469.878 118.413 470.408 118.155 471.152C117.911 471.897 117.739 472.427 117.639 472.742L115.877 477.834ZM111.473 484L117.532 467.607H119.981L126.018 484H123.762L122.215 479.51H115.297L113.729 484H111.473ZM80.4067 476.391V474.607H92.2876V476.391H87.3892V491H85.3052V476.391H80.4067ZM66.27 520V503.607H72.522C74.1548 503.607 75.4367 504.051 76.3677 504.939C77.313 505.827 77.7856 507.009 77.7856 508.484C77.7856 509.988 77.3058 511.177 76.3462 512.051C75.3866 512.924 74.119 513.361 72.5435 513.361H68.354V520H66.27ZM68.354 511.6H72.2427C73.3169 511.6 74.1476 511.342 74.7349 510.826C75.3364 510.296 75.6372 509.516 75.6372 508.484C75.6372 507.482 75.3436 506.715 74.7563 506.186C74.1691 505.656 73.3169 505.391 72.1997 505.391H68.354V511.6ZM81.4165 513.834H87.1528L85.4126 508.742C85.3267 508.484 85.1548 507.976 84.897 507.217C84.6535 506.458 84.4744 505.906 84.3599 505.562H84.231C84.1307 505.878 83.9517 506.408 83.6938 507.152C83.4504 507.897 83.2785 508.427 83.1782 508.742L81.4165 513.834ZM77.0122 520L83.0708 503.607H85.52L91.5571 520H89.3013L87.7544 515.51H80.8364L79.2681 520H77.0122ZM93.5981 520V503.607H95.6821V520H93.5981ZM99.9146 520V503.607H102.213L107.885 513.576L109.797 516.971H109.926C109.74 515.639 109.647 514.085 109.647 512.309V503.607H111.731V520H109.432L103.76 510.053L101.848 506.658H101.762C101.92 508.148 101.999 509.702 101.999 511.32V520H99.9146Z" fill="#FF383D"/>
<path d="M89.9726 400.026C41.2003 400.026 1.6626 439.563 1.6626 488.338C1.6626 537.111 41.2003 576.648 89.9726 576.648V620.262" stroke="#FFD6D7" stroke-width="2.4" stroke-miterlimit="10"/>
<path d="M97.4327 622.545C97.4327 618.533 94.1821 615.283 90.1705 615.283C86.1615 615.283 82.9082 618.533 82.9082 622.545C82.9082 626.556 86.1615 629.807 90.1705 629.807C94.1821 629.807 97.4327 626.556 97.4327 622.545Z" fill="#F2AEB0"/>
<path d="M190.511 503.07H393.822C401.243 503.07 408.246 499.638 412.792 493.772L455.528 438.629C460.074 432.763 467.077 429.331 474.498 429.331H631.721" stroke="#FFB2B1" stroke-width="5" stroke-linejoin="round"/>
<path d="M200.761 503.586C200.761 508.622 196.678 512.704 191.642 512.704C186.606 512.704 182.524 508.622 182.524 503.586C182.524 498.55 186.606 494.468 191.642 494.468C196.678 494.468 200.761 498.55 200.761 503.586Z" fill="#FF383D"/>
<path opacity="0.13" d="M1160 700.366C1160 661.356 1128.38 629.732 1089.37 629.732C1050.36 629.732 1018.74 661.356 1018.74 700.366C1018.74 739.376 1050.36 771 1089.37 771C1128.38 771 1160 739.376 1160 700.366Z" fill="#FF383D"/>
<path d="M1042.04 688.777L1043.93 688.111C1044.36 688.87 1044.95 689.472 1045.69 689.916C1046.45 690.36 1047.33 690.582 1048.32 690.582C1049.38 690.582 1050.24 690.324 1050.89 689.809C1051.55 689.293 1051.88 688.598 1051.88 687.725C1051.88 687.266 1051.78 686.865 1051.58 686.521C1051.4 686.163 1051.09 685.855 1050.68 685.598C1050.26 685.34 1049.87 685.132 1049.5 684.975C1049.14 684.817 1048.65 684.638 1048.04 684.437C1046.33 683.879 1045.16 683.399 1044.53 682.998C1043.25 682.167 1042.6 681.029 1042.6 679.582C1042.6 678.264 1043.11 677.212 1044.13 676.424C1045.16 675.622 1046.51 675.221 1048.19 675.221C1049.5 675.221 1050.64 675.529 1051.6 676.144C1052.56 676.746 1053.26 677.512 1053.69 678.443L1051.9 679.045C1051.03 677.684 1049.78 677.004 1048.14 677.004C1047.1 677.004 1046.27 677.24 1045.65 677.713C1045.05 678.185 1044.75 678.809 1044.75 679.582C1044.75 680.026 1044.86 680.42 1045.07 680.764C1045.29 681.107 1045.62 681.408 1046.06 681.666C1046.5 681.909 1046.93 682.11 1047.33 682.268C1047.73 682.425 1048.26 682.611 1048.92 682.826C1049.1 682.883 1049.24 682.926 1049.33 682.955C1050.01 683.184 1050.59 683.413 1051.07 683.643C1051.55 683.857 1052.04 684.151 1052.53 684.523C1053.03 684.881 1053.4 685.325 1053.64 685.855C1053.9 686.371 1054.03 686.973 1054.03 687.66C1054.03 689.15 1053.5 690.31 1052.44 691.141C1051.4 691.971 1050.01 692.387 1048.27 692.387C1046.78 692.387 1045.5 692.064 1044.43 691.42C1043.37 690.761 1042.57 689.88 1042.04 688.777ZM1056.97 692V675.607H1059.06V682.697H1066.62V675.607H1068.7V692H1066.62V684.437H1059.06V692H1056.97ZM1075.13 685.834H1080.86L1079.12 680.742C1079.04 680.484 1078.87 679.976 1078.61 679.217C1078.37 678.458 1078.19 677.906 1078.07 677.562H1077.94C1077.84 677.878 1077.66 678.407 1077.41 679.152C1077.16 679.897 1076.99 680.427 1076.89 680.742L1075.13 685.834ZM1070.72 692L1076.78 675.607H1079.23L1085.27 692H1083.01L1081.47 687.51H1074.55L1072.98 692H1070.72ZM1087.31 692V675.607H1089.39V683.836H1089.44L1096.51 675.607H1099.23L1092.96 682.719L1099.51 692H1096.94L1091.63 684.223L1089.39 686.758V692H1087.31ZM1101.62 692V675.607H1103.7V692H1101.62ZM1107.94 692V675.607H1110.23L1115.91 685.576L1117.82 688.971H1117.95C1117.76 687.639 1117.67 686.085 1117.67 684.309V675.607H1119.75V692H1117.45L1111.78 682.053L1109.87 678.658H1109.78C1109.94 680.148 1110.02 681.702 1110.02 683.32V692H1107.94ZM1122.93 683.814C1122.93 681.294 1123.58 679.231 1124.86 677.627C1126.17 676.023 1127.93 675.221 1130.15 675.221C1130.92 675.221 1131.64 675.342 1132.3 675.586C1132.97 675.829 1133.53 676.152 1133.97 676.553C1134.43 676.939 1134.8 677.326 1135.07 677.713C1135.36 678.085 1135.59 678.465 1135.78 678.852L1134 679.453C1132.98 677.82 1131.7 677.004 1130.15 677.004C1128.55 677.004 1127.3 677.627 1126.41 678.873C1125.52 680.119 1125.08 681.766 1125.08 683.814C1125.08 685.92 1125.54 687.574 1126.45 688.777C1127.37 689.98 1128.57 690.582 1130.06 690.582C1131.4 690.582 1132.43 690.167 1133.16 689.336C1133.89 688.491 1134.27 687.474 1134.3 686.285C1134.3 686.156 1134.3 685.92 1134.3 685.576C1134.31 685.218 1134.32 684.967 1134.32 684.824H1129.89V683.041H1136.34V692H1134.85L1134.68 689.852C1133.8 691.542 1132.23 692.387 1130 692.387C1127.92 692.387 1126.23 691.62 1124.91 690.088C1123.59 688.541 1122.93 686.45 1122.93 683.814ZM1053.28 712.814C1053.28 710.165 1053.93 708.074 1055.23 706.541C1056.55 704.994 1058.26 704.221 1060.37 704.221C1061.69 704.221 1062.81 704.586 1063.74 705.316C1064.67 706.032 1065.37 706.906 1065.83 707.937L1064.04 708.539C1063.08 706.849 1061.84 706.004 1060.33 706.004C1058.82 706.004 1057.63 706.627 1056.74 707.873C1055.86 709.105 1055.43 710.752 1055.43 712.814C1055.43 714.906 1055.87 716.56 1056.76 717.777C1057.66 718.98 1058.85 719.582 1060.33 719.582C1061.27 719.582 1062.09 719.317 1062.8 718.787C1063.51 718.243 1064.04 717.577 1064.39 716.789L1066.26 717.391C1066.04 717.878 1065.77 718.336 1065.44 718.766C1065.12 719.195 1064.73 719.618 1064.26 720.033C1063.78 720.449 1063.21 720.778 1062.54 721.021C1061.88 721.265 1061.16 721.387 1060.37 721.387C1058.29 721.387 1056.59 720.628 1055.26 719.109C1053.94 717.591 1053.28 715.493 1053.28 712.814ZM1068.94 721V704.607H1071.02V711.697H1078.59V704.607H1080.67V721H1078.59V713.437H1071.02V721H1068.94ZM1084.9 721V704.607H1086.99V721H1084.9ZM1091.22 721V704.607H1093.3V719.217H1100.97V721H1091.22ZM1103.27 721V704.607H1105.36V719.217H1113.03V721H1103.27ZM1113.97 717.777L1115.86 717.111C1116.29 717.87 1116.88 718.472 1117.62 718.916C1118.38 719.36 1119.26 719.582 1120.25 719.582C1121.31 719.582 1122.16 719.324 1122.82 718.809C1123.48 718.293 1123.81 717.598 1123.81 716.725C1123.81 716.266 1123.71 715.865 1123.51 715.521C1123.33 715.163 1123.02 714.855 1122.61 714.598C1122.19 714.34 1121.8 714.132 1121.43 713.975C1121.07 713.817 1120.58 713.638 1119.97 713.437C1118.26 712.879 1117.09 712.399 1116.46 711.998C1115.18 711.167 1114.53 710.029 1114.53 708.582C1114.53 707.264 1115.04 706.212 1116.06 705.424C1117.09 704.622 1118.44 704.221 1120.12 704.221C1121.43 704.221 1122.57 704.529 1123.53 705.144C1124.49 705.746 1125.19 706.512 1125.62 707.443L1123.83 708.045C1122.96 706.684 1121.71 706.004 1120.07 706.004C1119.03 706.004 1118.2 706.24 1117.58 706.713C1116.98 707.185 1116.68 707.809 1116.68 708.582C1116.68 709.026 1116.79 709.42 1117 709.764C1117.22 710.107 1117.55 710.408 1117.99 710.666C1118.43 710.909 1118.86 711.11 1119.26 711.268C1119.66 711.425 1120.19 711.611 1120.85 711.826C1121.03 711.883 1121.17 711.926 1121.26 711.955C1121.94 712.184 1122.52 712.413 1123 712.643C1123.48 712.857 1123.97 713.151 1124.46 713.523C1124.96 713.881 1125.33 714.325 1125.57 714.855C1125.83 715.371 1125.96 715.973 1125.96 716.66C1125.96 718.15 1125.43 719.31 1124.37 720.141C1123.33 720.971 1121.94 721.387 1120.2 721.387C1118.71 721.387 1117.43 721.064 1116.36 720.42C1115.3 719.761 1114.5 718.88 1113.97 717.777Z" fill="#FA5652"/>
<path d="M1089.87 613.801C1041.1 613.801 1001.56 653.339 1001.56 702.111C1001.56 750.886 1041.1 790.424 1089.87 790.424V834.035" stroke="#FFD6D7" stroke-width="2.4" stroke-miterlimit="10"/>
<path d="M1097.13 836.239C1097.13 832.227 1093.88 828.976 1089.86 828.976C1085.85 828.976 1082.6 832.227 1082.6 836.239C1082.6 840.248 1085.85 843.501 1089.86 843.501C1093.88 843.501 1097.13 840.248 1097.13 836.239Z" fill="#F2AEB0"/>
<path d="M725.738 754.401H816.846C824.124 754.401 831.009 751.098 835.565 745.421L861.096 713.605C865.651 707.929 872.536 704.626 879.814 704.626H973.995" stroke="#FFA6A6" stroke-width="5" stroke-linejoin="round"/>
<path d="M979.943 703.913C979.943 708.949 975.861 713.031 970.825 713.031C965.789 713.031 961.706 708.949 961.706 703.913C961.706 698.876 965.789 694.794 970.825 694.794C975.861 694.794 979.943 698.876 979.943 703.913Z" fill="#FF383D"/>
<path opacity="0.15" d="M1160 214.366C1160 175.356 1128.38 143.732 1089.37 143.732C1050.36 143.732 1018.74 175.356 1018.74 214.366C1018.74 253.376 1050.36 285 1089.37 285C1128.38 285 1160 253.376 1160 214.366Z" fill="#FF383D"/>
<path d="M1037.13 225V208.607H1039.21V215.697H1046.77V208.607H1048.86V225H1046.77V217.438H1039.21V225H1037.13ZM1053.09 225V208.607H1063.51V210.391H1055.18V215.654H1062.69V217.395H1055.18V223.217H1063.7V225H1053.09ZM1069.01 218.834H1074.75L1073.01 213.742C1072.92 213.484 1072.75 212.976 1072.49 212.217C1072.25 211.458 1072.07 210.906 1071.95 210.563H1071.83C1071.73 210.878 1071.55 211.408 1071.29 212.152C1071.04 212.897 1070.87 213.427 1070.77 213.742L1069.01 218.834ZM1064.61 225L1070.67 208.607H1073.11L1079.15 225H1076.9L1075.35 220.51H1068.43L1066.86 225H1064.61ZM1081.19 225V208.607H1085.77C1088.16 208.607 1090.03 209.309 1091.38 210.713C1092.74 212.117 1093.42 214.15 1093.42 216.815C1093.42 219.307 1092.77 221.298 1091.48 222.787C1090.19 224.262 1088.28 225 1085.73 225H1081.19ZM1083.28 223.238H1085.45C1087.27 223.238 1088.69 222.73 1089.72 221.713C1090.75 220.682 1091.27 219.049 1091.27 216.815C1091.27 212.532 1089.34 210.391 1085.49 210.391H1083.28V223.238ZM1098.62 218.834H1104.35L1102.61 213.742C1102.53 213.484 1102.35 212.976 1102.1 212.217C1101.85 211.458 1101.67 210.906 1101.56 210.563H1101.43C1101.33 210.878 1101.15 211.408 1100.89 212.152C1100.65 212.897 1100.48 213.427 1100.38 213.742L1098.62 218.834ZM1094.21 225L1100.27 208.607H1102.72L1108.76 225H1106.5L1104.95 220.51H1098.04L1096.47 225H1094.21ZM1109.72 216.815C1109.72 214.165 1110.38 212.074 1111.68 210.541C1113 208.994 1114.71 208.221 1116.81 208.221C1118.13 208.221 1119.26 208.586 1120.19 209.316C1121.12 210.033 1121.81 210.906 1122.27 211.938L1120.49 212.539C1119.53 210.849 1118.29 210.004 1116.77 210.004C1115.27 210.004 1114.07 210.627 1113.18 211.873C1112.31 213.105 1111.87 214.752 1111.87 216.815C1111.87 218.906 1112.32 220.56 1113.2 221.777C1114.11 222.981 1115.3 223.582 1116.77 223.582C1117.72 223.582 1118.54 223.317 1119.24 222.787C1119.96 222.243 1120.49 221.577 1120.83 220.789L1122.7 221.391C1122.49 221.878 1122.21 222.336 1121.88 222.766C1121.57 223.195 1121.18 223.618 1120.7 224.033C1120.23 224.449 1119.66 224.778 1118.98 225.022C1118.32 225.265 1117.6 225.387 1116.81 225.387C1114.74 225.387 1113.03 224.628 1111.7 223.109C1110.38 221.591 1109.72 219.493 1109.72 216.815ZM1125.39 225V208.607H1127.47V215.697H1135.03V208.607H1137.12V225H1135.03V217.438H1127.47V225H1125.39ZM1037.13 253V236.607H1047.55V238.391H1039.21V243.654H1046.73V245.395H1039.21V251.217H1047.74V253H1037.13Z" fill="#FF383D"/>
<path d="M1089.87 127.65C1041.1 127.65 1001.56 167.187 1001.56 215.96C1001.56 264.732 1041.1 304.272 1089.87 304.272V347.883" stroke="#FFD6D7" stroke-width="2.4" stroke-miterlimit="10"/>
<path d="M1097.13 350.087C1097.13 346.075 1093.88 342.825 1089.87 342.825C1085.86 342.825 1082.61 346.075 1082.61 350.087C1082.61 354.099 1085.86 357.349 1089.87 357.349C1093.88 357.349 1097.13 354.099 1097.13 350.087Z" fill="#F2AEB0"/>
<path d="M975.839 222.859H849.559C843.442 222.859 837.555 225.195 833.102 229.39L804.567 256.271C800.114 260.466 794.228 262.802 788.11 262.802H674.12" stroke="#FFB2B1" stroke-width="5" stroke-linejoin="round"/>
<path d="M979.941 222.146C979.941 227.182 975.859 231.264 970.822 231.264C965.786 231.264 961.704 227.182 961.704 222.146C961.704 217.11 965.786 213.027 970.822 213.027C975.859 213.027 979.941 217.11 979.941 222.146Z" fill="#FF383D"/>
<defs>
<filter id="filter0_d" x="24.9148" y="724.221" width="100.955" height="44.7793" filterUnits="userSpaceOnUse" color-interpolation-filters="sRGB">
<feFlood flood-opacity="0" result="BackgroundImageFix"/>
<feColorMatrix in="SourceAlpha" type="matrix" values="0 0 0 0 0 0 0 0 0 0 0 0 0 0 0 0 0 0 127 0"/>
<feOffset/>
<feColorMatrix type="matrix" values="0 0 0 0 0 0 0 0 0 0 0 0 0 0 0 0 0 0 0.1 0"/>
<feBlend mode="normal" in2="BackgroundImageFix" result="effect1_dropShadow"/>
<feBlend mode="normal" in="SourceGraphic" in2="effect1_dropShadow" result="shape"/>
</filter>
<linearGradient id="paint0_linear" x1="279.615" y1="651.802" x2="343.866" y2="780.175" gradientUnits="userSpaceOnUse">
<stop stop-color="#FFC8C8"/>
<stop offset="1" stop-color="#FFF2F5"/>
</linearGradient>
<linearGradient id="paint1_linear" x1="911.18" y1="248.499" x2="389.511" y2="38.2372" gradientUnits="userSpaceOnUse">
<stop stop-color="white"/>
<stop offset="1" stop-color="#FFD5D5"/>
</linearGradient>
<linearGradient id="paint2_linear" x1="843.946" y1="153.536" x2="682.873" y2="126.967" gradientUnits="userSpaceOnUse">
<stop stop-color="#FFD3D3"/>
<stop offset="1" stop-color="#FFF6F6"/>
</linearGradient>
<linearGradient id="paint3_linear" x1="205.431" y1="428.025" x2="962.765" y2="428.025" gradientUnits="userSpaceOnUse">
<stop stop-color="#FFF8F5"/>
<stop offset="1" stop-color="#FFDEDE"/>
</linearGradient>
<linearGradient id="paint4_linear" x1="893.009" y1="609.534" x2="694.623" y2="627.818" gradientUnits="userSpaceOnUse">
<stop stop-color="#FFC2C2"/>
<stop offset="1" stop-color="white"/>
</linearGradient>
</defs>
</svg>
